<?xml version="1.0" encoding="utf-8"?>
<!-- Generator: Adobe Illustrator 24.3.0, SVG Export Plug-In . SVG Version: 6.00 Build 0)  -->
<svg version="1.1" id="Layer_1" xmlns="http://www.w3.org/2000/svg" xmlns:xlink="http://www.w3.org/1999/xlink" x="0px" y="0px"
	 viewBox="0 0 130 43" style="enable-background:new 0 0 130 43;" xml:space="preserve">
<style type="text/css">
	.st0{fill-rule:evenodd;clip-rule:evenodd;fill:#A7F432;}
	.st1{fill-rule:evenodd;clip-rule:evenodd;}
</style>
<g>
	<g>
		<g>
			<g>
				<g>
					<g>
						<path d="M61.06,17.17c0.87,0.17,1.65,0.41,2.33,0.71c0.15,0.08,0.23,0.2,0.23,0.37v2.96c0,0.19-0.1,0.28-0.28,0.28h-2.9
							c-0.19,0-0.28-0.09-0.28-0.28v-0.85c0-0.11-0.05-0.19-0.14-0.23c-0.44-0.17-1-0.26-1.71-0.26c-1.31,0-1.96,0.39-1.96,1.17
							c0,0.36,0.13,0.63,0.4,0.81c0.27,0.18,0.78,0.31,1.53,0.38l1.51,0.17c1.67,0.19,2.86,0.64,3.57,1.35s1.07,1.68,1.07,2.91
							c0,1.52-0.54,2.67-1.62,3.47c-1.08,0.8-2.61,1.19-4.58,1.19c-1.99,0-3.78-0.33-5.37-0.99c-0.13-0.08-0.2-0.19-0.2-0.34V26.8
							c0-0.19,0.09-0.28,0.28-0.28h2.96c0.19,0,0.28,0.1,0.28,0.28v1.02c0,0.1,0.05,0.16,0.14,0.2c0.55,0.19,1.24,0.28,2.07,0.28
							c1.5,0,2.25-0.44,2.25-1.34c0-0.4-0.14-0.69-0.43-0.88c-0.28-0.19-0.82-0.32-1.62-0.4l-1.53-0.17
							c-2.97-0.32-4.46-1.73-4.46-4.23c0-1.36,0.5-2.43,1.49-3.21c0.99-0.78,2.41-1.17,4.25-1.17C59.28,16.91,60.19,17,61.06,17.17z
							"/>
					</g>
				</g>
			</g>
			<g>
				<g>
					<g>
						<path d="M71.24,11.97V26.4c0,0.45,0.1,0.79,0.3,0.99c0.2,0.21,0.5,0.31,0.9,0.31h0.6c0.19,0,0.28,0.09,0.28,0.28v2.79
							c0,0.19-0.1,0.28-0.28,0.28h-1.48c-1.52,0-2.61-0.35-3.27-1.05c-0.66-0.7-0.99-1.82-0.99-3.35V15.15
							c0-0.11-0.06-0.17-0.17-0.17h-1.11c-0.19,0-0.28-0.09-0.28-0.28v-2.73c0-0.19,0.09-0.28,0.28-0.28h4.95
							C71.14,11.68,71.24,11.78,71.24,11.97z"/>
					</g>
				</g>
			</g>
			<g>
				<g>
					<g>
						<path d="M80.25,17.54v10c0,0.11,0.06,0.17,0.17,0.17h1.08c0.19,0,0.28,0.09,0.28,0.28v2.73c0,0.19-0.09,0.28-0.28,0.28h-6.48
							c-0.19,0-0.28-0.09-0.28-0.28v-2.73c0-0.19,0.09-0.28,0.28-0.28h1.11c0.11,0,0.17-0.06,0.17-0.17v-6.82
							c0-0.11-0.06-0.17-0.17-0.17h-1.11c-0.19,0-0.28-0.09-0.28-0.28v-2.73c0-0.19,0.09-0.28,0.28-0.28h4.95
							C80.15,17.25,80.25,17.35,80.25,17.54z M80.25,11.97v2.81c0,0.19-0.09,0.28-0.28,0.28h-3.38c-0.19,0-0.28-0.09-0.28-0.28
							v-2.81c0-0.19,0.09-0.28,0.28-0.28h3.38C80.15,11.68,80.25,11.78,80.25,11.97z"/>
					</g>
				</g>
			</g>
			<g>
				<g>
					<g>
						<path d="M88.8,11.97v10.17l4.12-4.63c0.15-0.17,0.34-0.26,0.57-0.26h3.13c0.19,0,0.28,0.1,0.28,0.28v2.73
							c0,0.19-0.1,0.28-0.28,0.28h-1.79c-0.09,0-0.19,0.05-0.28,0.14l-1.62,1.73l2.9,5.12c0.08,0.11,0.17,0.17,0.28,0.17h1.28
							c0.19,0,0.28,0.09,0.28,0.28v2.73c0,0.19-0.09,0.28-0.28,0.28h-3.72c-0.19,0-0.34-0.09-0.45-0.28l-2.96-5.46L88.8,26.8v0.74
							c0,0.11,0.06,0.17,0.17,0.17h0.94c0.19,0,0.28,0.09,0.28,0.28v2.73c0,0.19-0.09,0.28-0.28,0.28h-6.34
							c-0.19,0-0.28-0.09-0.28-0.28v-2.73c0-0.19,0.09-0.28,0.28-0.28h1.11c0.11,0,0.17-0.06,0.17-0.17V15.15
							c0-0.11-0.06-0.17-0.17-0.17h-1.11c-0.19,0-0.28-0.09-0.28-0.28v-2.73c0-0.19,0.09-0.28,0.28-0.28h4.95
							C88.71,11.68,88.8,11.78,88.8,11.97z"/>
					</g>
				</g>
			</g>
			<g>
				<g>
					<g>
						<path d="M104.35,11.97v10.17l4.12-4.63c0.15-0.17,0.34-0.26,0.57-0.26h3.13c0.19,0,0.28,0.1,0.28,0.28v2.73
							c0,0.19-0.1,0.28-0.28,0.28h-1.79c-0.09,0-0.19,0.05-0.28,0.14l-1.62,1.73l2.9,5.12c0.08,0.11,0.17,0.17,0.28,0.17h1.28
							c0.19,0,0.28,0.09,0.28,0.28v2.73c0,0.19-0.09,0.28-0.28,0.28h-3.72c-0.19,0-0.34-0.09-0.45-0.28l-2.96-5.46l-1.45,1.53v0.74
							c0,0.11,0.06,0.17,0.17,0.17h0.94c0.19,0,0.28,0.09,0.28,0.28v2.73c0,0.19-0.09,0.28-0.28,0.28h-6.34
							c-0.19,0-0.28-0.09-0.28-0.28v-2.73c0-0.19,0.09-0.28,0.28-0.28h1.11c0.11,0,0.17-0.06,0.17-0.17V15.15
							c0-0.11-0.06-0.17-0.17-0.17h-1.11c-0.19,0-0.28-0.09-0.28-0.28v-2.73c0-0.19,0.09-0.28,0.28-0.28h4.95
							C104.25,11.68,104.35,11.78,104.35,11.97z"/>
					</g>
				</g>
			</g>
		</g>
		<g>
			<g>
				<g>
					<g>
						<polygon class="st0" points="124.53,31.32 121.64,27.93 117.2,28.39 119.54,24.59 117.73,20.51 122.06,21.56 125.38,18.58 
							125.73,23.02 129.58,25.26 125.46,26.96 						"/>
					</g>
				</g>
			</g>
		</g>
	</g>
	<g>
		<g>
			<g>
				<g>
					<path class="st0" d="M41.77,42.34H4.69c-2.36,0-4.28-1.91-4.28-4.28V4.93c0-2.36,1.91-4.28,4.28-4.28h37.08
						c2.36,0,4.28,1.91,4.28,4.28v33.13C46.05,40.43,44.14,42.34,41.77,42.34z"/>
				</g>
			</g>
		</g>
		<g>
			<g>
				<g>
					<g>
						<polygon class="st1" points="39.47,37.38 36.58,33.98 32.15,34.44 34.48,30.64 32.67,26.57 37.01,27.61 40.33,24.64 
							40.67,29.08 44.53,31.32 40.41,33.02 						"/>
					</g>
				</g>
			</g>
		</g>
		<g>
			<g>
				<path d="M22.44,6.17C24.09,6.53,25.62,7.04,27,7.7c0.21,0.09,0.32,0.29,0.32,0.59v6.33c0,0.3-0.15,0.45-0.45,0.45h-4.89
					c-0.3,0-0.45-0.15-0.45-0.45v-2.35c0-0.21-0.09-0.35-0.27-0.41c-1.21-0.48-2.52-0.72-3.94-0.72c-1.48,0-2.58,0.3-3.3,0.9
					c-0.72,0.6-1.09,1.42-1.09,2.44c0,1.03,0.35,1.83,1.04,2.4c0.69,0.57,1.91,0.98,3.66,1.22l1.63,0.23
					c3.23,0.42,5.65,1.41,7.26,2.96c1.61,1.55,2.42,3.7,2.42,6.45c0,2.96-1.03,5.3-3.08,7.03c-2.05,1.73-5.02,2.6-8.91,2.6
					c-3.86,0-7.3-0.74-10.31-2.22c-0.27-0.12-0.41-0.32-0.41-0.59v-6.65c0-0.3,0.15-0.45,0.45-0.45h5.16c0.3,0,0.45,0.15,0.45,0.45
					v2.67c0,0.18,0.07,0.3,0.23,0.36c1.54,0.54,3.08,0.81,4.61,0.81c1.63,0,2.87-0.32,3.73-0.97c0.86-0.65,1.29-1.58,1.29-2.78
					c0-1-0.35-1.79-1.06-2.38c-0.71-0.59-1.92-1-3.64-1.24l-1.63-0.23c-3.23-0.45-5.65-1.43-7.26-2.94
					c-1.61-1.51-2.42-3.65-2.42-6.42c0-2.9,0.99-5.15,2.96-6.76c1.97-1.61,4.74-2.42,8.3-2.42C19.1,5.62,20.78,5.81,22.44,6.17z"/>
				<path d="M16.96,37.78c-3.9,0-7.43-0.76-10.49-2.26c-0.4-0.18-0.63-0.52-0.63-0.95v-6.65c0-0.53,0.33-0.85,0.85-0.85h5.16
					c0.53,0,0.85,0.33,0.85,0.85v2.67c1.45,0.51,2.96,0.78,4.44,0.78c1.53,0,2.71-0.3,3.49-0.89c0.76-0.57,1.13-1.38,1.13-2.46
					c0-0.88-0.3-1.55-0.92-2.07c-0.65-0.54-1.81-0.92-3.44-1.15l-1.63-0.23c-3.3-0.46-5.81-1.49-7.48-3.04
					c-1.69-1.58-2.55-3.84-2.55-6.71c0-3.01,1.05-5.39,3.11-7.07c2.04-1.67,4.92-2.51,8.55-2.51c1.71,0,3.43,0.19,5.11,0.55l0,0
					c1.68,0.37,3.24,0.89,4.66,1.57c0.19,0.08,0.54,0.33,0.54,0.95v6.33c0,0.53-0.33,0.85-0.85,0.85h-4.89
					c-0.53,0-0.85-0.33-0.85-0.85v-2.35c-1.17-0.5-2.45-0.73-3.81-0.73c-1.37,0-2.4,0.27-3.05,0.81c-0.63,0.53-0.94,1.23-0.94,2.13
					c0,0.91,0.29,1.59,0.89,2.09c0.63,0.52,1.8,0.9,3.46,1.13l1.63,0.23c3.3,0.43,5.81,1.46,7.48,3.07
					c1.69,1.62,2.54,3.89,2.54,6.73c0,3.06-1.08,5.53-3.22,7.34C24.02,36.87,20.93,37.78,16.96,37.78z M6.69,27.87l-0.05,6.7
					c0,0.08,0.01,0.15,0.17,0.22c2.96,1.45,6.37,2.18,10.15,2.18c3.77,0,6.69-0.84,8.65-2.51c1.95-1.65,2.93-3.91,2.93-6.73
					c0-2.62-0.77-4.69-2.3-6.16c-1.54-1.48-3.91-2.44-7.03-2.85l-1.63-0.23c-1.84-0.25-3.1-0.68-3.86-1.31
					c-0.79-0.65-1.19-1.56-1.19-2.71c0-1.14,0.41-2.07,1.23-2.75c0.79-0.66,1.99-1,3.56-1c1.46,0,2.83,0.25,4.08,0.75
					c0.32,0.11,0.52,0.39,0.52,0.78v2.35l4.94,0.05l0.05-6.38c0-0.19-0.05-0.21-0.08-0.22c-1.37-0.65-2.88-1.16-4.5-1.51
					c-1.62-0.35-3.28-0.53-4.94-0.53c-3.45,0-6.15,0.78-8.05,2.33c-1.89,1.55-2.82,3.66-2.82,6.45c0,2.65,0.77,4.71,2.29,6.13
					c1.54,1.44,3.91,2.4,7.04,2.84L17.51,24c1.81,0.25,3.07,0.69,3.84,1.33c0.8,0.67,1.21,1.57,1.21,2.68c0,1.33-0.49,2.38-1.45,3.1
					c-0.92,0.7-2.26,1.05-3.97,1.05c-1.58,0-3.17-0.28-4.75-0.84c-0.32-0.13-0.49-0.39-0.49-0.74v-2.67L6.69,27.87z"/>
			</g>
		</g>
	</g>
</g>
</svg>
