<?xml version="1.0" encoding="utf-8"?>
<!-- Generator: Adobe Illustrator 24.3.0, SVG Export Plug-In . SVG Version: 6.00 Build 0)  -->
<svg version="1.1" id="Layer_1" xmlns="http://www.w3.org/2000/svg" xmlns:xlink="http://www.w3.org/1999/xlink" x="0px" y="0px"
	 viewBox="0 0 32 32" style="enable-background:new 0 0 32 32;" xml:space="preserve">
<path d="M12.25,19.75c-0.34,0-0.58,0-0.82,0c-2.48,0-4.96,0.02-7.44-0.01c-1.93-0.02-3.46-1.39-3.72-3.27
	c-0.25-1.8,0.93-3.58,2.72-4.07c0.41-0.11,0.85-0.13,1.28-0.14c2.4-0.01,4.79-0.01,7.19-0.01c0.22,0,0.45,0,0.78,0
	c0-0.28,0-0.51,0-0.74c0-2.5-0.02-5,0.01-7.49c0.02-1.95,1.43-3.51,3.31-3.73C17.37,0.07,19.11,1.23,19.6,3
	c0.11,0.41,0.14,0.85,0.14,1.27c0.01,2.42,0.01,4.83,0.01,7.25c0,0.22,0,0.44,0,0.74c0.31,0,0.55,0,0.79,0c2.5,0,5-0.02,7.5,0.01
	c1.92,0.02,3.45,1.42,3.69,3.29c0.23,1.81-0.96,3.58-2.76,4.05c-0.39,0.1-0.81,0.12-1.22,0.13c-2.42,0.01-4.83,0.01-7.25,0.01
	c-0.22,0-0.44,0-0.75,0c0,0.3,0,0.54,0,0.77c0,2.5,0.02,5-0.01,7.49c-0.02,1.65-0.99,2.97-2.51,3.51c-1.45,0.51-3.05,0.09-4.07-1.09
	c-0.65-0.75-0.91-1.62-0.91-2.6c0.01-2.44,0-4.87,0-7.31C12.25,20.29,12.25,20.07,12.25,19.75z"/>
</svg>
