<?xml version="1.0" encoding="utf-8"?>
<!-- Generator: Adobe Illustrator 24.3.0, SVG Export Plug-In . SVG Version: 6.00 Build 0)  -->
<svg version="1.1" id="Layer_1" xmlns="http://www.w3.org/2000/svg" xmlns:xlink="http://www.w3.org/1999/xlink" x="0px" y="0px"
	 viewBox="0 0 32 32" style="enable-background:new 0 0 32 32;" xml:space="preserve">
<g>
	<path d="M30.05,15.97c0,4.39,0,8.78,0,13.17c0,1.78-0.82,2.6-2.62,2.61c-7.63,0-15.26,0-22.89,0c-1.79,0-2.6-0.83-2.6-2.62
		c0-8.76,0-17.51,0-26.27c0-1.79,0.82-2.6,2.62-2.6c7.63,0,15.26,0,22.89,0c1.79,0,2.6,0.82,2.6,2.62
		C30.06,7.24,30.05,11.6,30.05,15.97z M2.92,8.05c0,0.34,0,0.6,0,0.86c0,6.71,0,13.41,0,20.12c0,1.42,0.33,1.74,1.74,1.74
		c7.56,0,15.11,0,22.67,0c1.42,0,1.75-0.32,1.75-1.73c0-6.73,0-13.46,0-20.19c0-0.26-0.02-0.51-0.03-0.8
		C20.33,8.05,11.68,8.05,2.92,8.05z M29.08,7c0-1.45,0.01-2.87,0-4.28c-0.01-1.08-0.41-1.48-1.49-1.48c-1.79-0.01-3.57,0-5.36,0
		c-5.94,0-11.87,0-17.81,0c-1.09,0-1.49,0.4-1.5,1.47c-0.01,0.72,0,1.45,0,2.17c0,0.71,0,1.42,0,2.13C11.7,7,20.35,7,29.08,7z"/>
	<path d="M15.93,28.79c-5.27-0.05-9.52-4.36-9.47-9.6c0.05-5.28,4.38-9.48,9.72-9.42c5.16,0.06,9.4,4.39,9.36,9.56
		C25.5,24.59,21.19,28.84,15.93,28.79z M22.26,20.24c-1.43,0.48-2.47,0.15-3.35-0.91c-0.67-0.8-1.8-0.81-2.45,0.04
		c-1.08,1.44-3.22,1.43-4.31,0.03c-0.27-0.35-0.9-0.56-1.38-0.6c-0.72-0.06-1.18,0.44-1.11,1.01c0.31,2.53,1.59,4.39,3.97,5.34
		c2.37,0.95,4.6,0.54,6.55-1.11C21.32,23.07,22,21.83,22.26,20.24z M11.89,11.82c-3.32,1.66-5.13,5.77-4.22,9.46
		c0.97,3.93,4.52,6.67,8.54,6.57c3.96-0.1,7.44-3,8.19-6.83c0.73-3.74-1.16-7.81-4.25-9.16c-0.43,1.05-0.42,1.03,0.42,1.72
		c1.75,1.45,2.69,3.31,2.73,5.59c0.06,3.29-2.11,6.22-5.28,7.12c-3.18,0.91-6.54-0.41-8.26-3.25c-1.7-2.81-1.3-6.47,0.99-8.81
		c0.45-0.46,0.97-0.85,1.49-1.29C12.11,12.59,12.01,12.23,11.89,11.82z M12.43,14.04c-1.38,0.95-2.25,2.24-2.64,3.97
		c1.45-0.46,2.52-0.03,3.45,1.07c0.56,0.67,1.63,0.56,2.27-0.09c1.56-1.6,2.87-1.61,4.36-0.04c0.53,0.56,1.16,0.69,1.84,0.42
		c0.25-0.1,0.57-0.39,0.6-0.62c0.19-1.47-1.38-4-2.83-4.67c-0.05,0.13-0.12,0.26-0.14,0.4c-0.11,0.76-0.5,1.03-1.29,0.98
		c-1.13-0.07-2.27-0.08-3.4,0c-1.08,0.07-1.97-0.02-2.12-1.35C12.52,14.1,12.49,14.09,12.43,14.04z M19.23,11.36
		c-2.2-0.83-4.3-0.83-6.47,0.01c0.28,0.98,0.53,1.88,0.82,2.76c0.06,0.17,0.32,0.37,0.49,0.37c1.27,0.03,2.55,0.03,3.82,0
		c0.18,0,0.45-0.19,0.5-0.36C18.7,13.26,18.95,12.35,19.23,11.36z"/>
	<path d="M10.64,4.6c-1.33,0-2.66,0-3.98,0c-0.36,0-0.76-0.03-0.7-0.48c0.02-0.18,0.43-0.43,0.67-0.43
		c2.65-0.03,5.31-0.02,7.97-0.02c0.35,0,0.78,0.01,0.69,0.48c-0.04,0.19-0.47,0.43-0.73,0.44C13.25,4.62,11.94,4.6,10.64,4.6z"/>
	<path d="M21.55,4.13c0,0.9-0.7,1.6-1.59,1.61c-0.89,0-1.62-0.71-1.62-1.59c0-0.87,0.73-1.6,1.61-1.61
		C20.84,2.53,21.55,3.23,21.55,4.13z M19.92,5.04c0.32-0.41,0.66-0.66,0.64-0.88c-0.02-0.23-0.36-0.59-0.58-0.61
		c-0.21-0.01-0.58,0.34-0.61,0.56C19.34,4.34,19.65,4.6,19.92,5.04z"/>
	<path d="M27.21,4.14c-0.01,0.9-0.71,1.59-1.61,1.59C24.71,5.72,23.99,5,24,4.12c0.01-0.87,0.74-1.59,1.63-1.59
		C26.51,2.54,27.22,3.25,27.21,4.14z M25.57,5.04c0.33-0.41,0.67-0.65,0.65-0.87c-0.01-0.23-0.36-0.6-0.58-0.61
		c-0.21-0.01-0.58,0.33-0.62,0.56C24.99,4.33,25.29,4.6,25.57,5.04z"/>
</g>
</svg>
