<?xml version="1.0" encoding="utf-8"?>
<!-- Generator: Adobe Illustrator 24.3.0, SVG Export Plug-In . SVG Version: 6.00 Build 0)  -->
<svg version="1.1" id="Layer_1" xmlns="http://www.w3.org/2000/svg" xmlns:xlink="http://www.w3.org/1999/xlink" x="0px" y="0px"
	 viewBox="0 0 32 32" style="enable-background:new 0 0 32 32;" xml:space="preserve">
<path d="M359.32-192.71c-1.37,0.01-2.74,0.01-4.11,0.01c-2.12,0.01-3.18,1-3.18,3.02c0,6.04,0,12.09,0,18.13
	c0,2.01,1.07,3.02,3.18,3.02c7.18,0,14.36,0,21.55,0c2.32,0,3.34-0.96,3.34-3.14c0-5.95,0-11.91,0-17.86c0-0.25,0-0.5-0.02-0.75
	c-0.11-1.35-1.21-2.37-2.64-2.41c-1.27-0.03-2.55-0.01-3.82-0.01c-0.25,0-0.51,0-0.83,0c0.01-0.24,0.02-0.47,0.02-0.7
	c-0.01-1.67-0.46-3.16-1.61-4.42c-1.31-1.44-2.99-2.18-5-2.2c-1.65-0.01-3.11,0.5-4.36,1.53c-1.65,1.37-2.3,3.12-2.29,5.09
	c0,0.2,0,0.41,0.02,0.61C359.41-192.74,359.37-192.71,359.32-192.71z M372.77-187.6c0.02,3.28-2.47,5.81-5.98,6.11
	c-3.47,0.29-6.53-1.82-7.13-4.96c-0.13-0.66-0.08-1.36-0.07-2.04c0.01-0.45,0.31-0.73,0.78-0.73c0.51,0,0.79,0.28,0.81,0.77
	c0.01,0.32,0,0.64,0.01,0.95c0.03,2.58,2.18,4.51,5.01,4.5c2.81-0.01,4.92-1.92,4.94-4.47c0-0.34-0.1-0.73,0.04-1.01
	c0.14-0.3,0.48-0.63,0.8-0.7c0.45-0.1,0.74,0.26,0.79,0.7C372.8-188.19,372.77-187.9,372.77-187.6z M363.32-197.67
	c1.71-1.12,3.57-1.2,5.36-0.21c1.83,1.01,2.51,2.58,2.45,4.48c-0.01,0.21-0.02,0.43-0.04,0.65c-3.27,0-6.54,0-9.85,0
	c-0.02-0.22-0.04-0.44-0.04-0.65C361.15-195.13,361.72-196.61,363.32-197.67z"/>
<g>
	<path d="M395.87-82.55c-0.47,0-0.94,0.01-1.41,0c-1.11-0.02-1.88-0.72-2.03-1.83c-0.08-0.65-0.14-1.3-0.27-1.95
		c-0.04-0.2-0.25-0.41-0.43-0.54c-1.01-0.75-1.89-0.5-2.69,0.38c-0.19,0.21-0.44,0.36-0.68,0.53c-0.86,0.61-1.82,0.56-2.58-0.17
		c-0.71-0.68-1.41-1.37-2.09-2.09c-0.72-0.76-0.78-1.72-0.15-2.57c0.41-0.56,0.87-1.09,1.26-1.66c0.11-0.16,0.1-0.42,0.09-0.64
		c-0.01-0.13-0.15-0.25-0.17-0.39c-0.15-1.02-0.86-1.2-1.74-1.26c-2.17-0.13-3.01-0.65-2.87-3.13c0.03-0.59,0-1.19,0.01-1.78
		c0.01-1.18,0.72-1.94,1.91-2.08c0.63-0.07,1.26-0.13,1.88-0.26c0.19-0.04,0.39-0.22,0.51-0.39c0.69-1.02,0.58-1.93-0.37-2.75
		c-0.24-0.21-0.42-0.5-0.6-0.78c-0.51-0.78-0.46-1.71,0.17-2.38c0.71-0.76,1.45-1.5,2.21-2.22c0.73-0.68,1.69-0.71,2.53-0.1
		c0.56,0.41,1.09,0.87,1.66,1.26c0.16,0.11,0.43,0.12,0.64,0.08c1.16-0.24,1.78-0.91,1.66-2.16c-0.03-0.28,0.06-0.57,0.1-0.85
		c0.16-1.04,0.93-1.73,1.97-1.75c0.96-0.02,1.93-0.02,2.89,0c1.08,0.02,1.85,0.71,2,1.79c0.09,0.65,0.19,1.3,0.24,1.95
		c0.03,0.35,0.21,0.44,0.48,0.6c1.02,0.64,1.87,0.5,2.65-0.39c0.2-0.23,0.47-0.39,0.72-0.57c0.83-0.58,1.79-0.54,2.53,0.16
		c0.73,0.69,1.44,1.4,2.13,2.13c0.7,0.74,0.75,1.69,0.16,2.53c-0.41,0.57-0.87,1.09-1.26,1.66c-0.12,0.17-0.08,0.46-0.11,0.69
		c0,0.02,0.02,0.04,0.03,0.05c0.24,1.18,0.96,1.68,2.15,1.59c0.26-0.02,0.53,0.06,0.79,0.1c1.08,0.15,1.77,0.92,1.79,2
		c0.02,0.94,0.01,1.88,0,2.83c-0.01,1.12-0.7,1.89-1.81,2.04c-0.57,0.08-1.14,0.2-1.7,0.21c-0.56,0.01-0.69,0.33-0.94,0.74
		c-0.53,0.9-0.34,1.57,0.36,2.23c0.29,0.28,0.52,0.63,0.75,0.97c0.53,0.79,0.48,1.73-0.18,2.43c-0.7,0.75-1.43,1.47-2.17,2.17
		c-0.74,0.69-1.7,0.74-2.53,0.13c-0.56-0.41-1.09-0.87-1.66-1.26c-0.17-0.12-0.47-0.12-0.69-0.08c-1.21,0.22-1.72,0.96-1.63,2.18
		c0.02,0.26-0.06,0.53-0.1,0.79c-0.16,1.07-0.93,1.75-2.01,1.78C396.81-82.55,396.34-82.55,395.87-82.55z M407.35-107
		c-0.12-0.19-0.21-0.38-0.34-0.52c-0.61-0.63-1.25-1.24-1.86-1.87c-0.37-0.38-0.72-0.39-1.13-0.06c-0.67,0.54-1.36,1.05-2.03,1.59
		c-0.31,0.25-0.6,0.25-0.96,0.09c-0.67-0.31-1.35-0.59-2.04-0.84c-0.42-0.15-0.63-0.39-0.67-0.84c-0.09-0.85-0.22-1.7-0.33-2.56
		c-0.06-0.47-0.32-0.67-0.79-0.67c-0.9,0.01-1.8,0-2.7,0c-0.44,0-0.69,0.2-0.74,0.64c-0.11,0.85-0.25,1.7-0.33,2.56
		c-0.05,0.48-0.28,0.72-0.71,0.88c-0.67,0.24-1.33,0.51-1.98,0.82c-0.38,0.18-0.69,0.16-1.02-0.1c-0.67-0.54-1.36-1.05-2.03-1.59
		c-0.39-0.31-0.73-0.29-1.08,0.07c-0.6,0.62-1.2,1.23-1.83,1.82c-0.41,0.39-0.42,0.75-0.07,1.18c0.53,0.65,1.03,1.33,1.55,1.98
		c0.26,0.33,0.27,0.63,0.09,1.02c-0.31,0.66-0.58,1.35-0.84,2.04c-0.15,0.39-0.38,0.6-0.8,0.64c-0.85,0.09-1.7,0.23-2.56,0.33
		c-0.5,0.06-0.71,0.33-0.7,0.82c0.01,0.88,0.01,1.76,0,2.64c0,0.47,0.2,0.72,0.68,0.78c0.85,0.1,1.7,0.24,2.56,0.33
		c0.45,0.05,0.69,0.27,0.84,0.68c0.25,0.67,0.51,1.34,0.82,1.98c0.2,0.41,0.18,0.72-0.1,1.07c-0.54,0.67-1.06,1.36-1.59,2.03
		c-0.29,0.37-0.27,0.7,0.06,1.03c0.63,0.62,1.26,1.24,1.87,1.87c0.37,0.38,0.72,0.39,1.13,0.06c0.65-0.53,1.33-1.02,1.98-1.55
		c0.35-0.28,0.66-0.29,1.07-0.09c0.64,0.31,1.31,0.57,1.98,0.82c0.41,0.15,0.63,0.39,0.67,0.84c0.09,0.85,0.22,1.7,0.33,2.56
		c0.06,0.47,0.32,0.67,0.79,0.67c0.9-0.01,1.8,0,2.7,0c0.44,0,0.69-0.2,0.74-0.65c0.11-0.85,0.25-1.7,0.33-2.56
		c0.05-0.48,0.28-0.72,0.71-0.88c0.65-0.23,1.3-0.49,1.92-0.79c0.4-0.19,0.71-0.22,1.07,0.07c0.67,0.54,1.36,1.05,2.03,1.59
		c0.39,0.31,0.73,0.29,1.08-0.07c0.6-0.62,1.2-1.23,1.83-1.82c0.41-0.39,0.41-0.75,0.06-1.18c-0.53-0.65-1.03-1.33-1.55-1.98
		c-0.27-0.33-0.27-0.63-0.09-1.01c0.31-0.66,0.58-1.35,0.84-2.04c0.15-0.39,0.38-0.59,0.8-0.64c0.85-0.09,1.7-0.23,2.56-0.33
		c0.5-0.06,0.71-0.33,0.7-0.82c-0.01-0.88-0.01-1.76,0-2.64c0-0.47-0.21-0.72-0.68-0.78c-0.83-0.1-1.66-0.25-2.5-0.32
		c-0.51-0.04-0.76-0.28-0.92-0.75c-0.22-0.64-0.47-1.27-0.77-1.87c-0.21-0.42-0.23-0.75,0.08-1.12c0.52-0.63,1.02-1.29,1.51-1.94
		C407.13-106.57,407.22-106.78,407.35-107z"/>
	<path d="M402.41-98.3c0,3.64-2.91,6.56-6.55,6.55c-3.64,0-6.55-2.93-6.54-6.57c0.01-3.61,2.91-6.51,6.52-6.52
		C399.48-104.84,402.4-101.94,402.41-98.3z M395.83-103.54c-2.88,0.02-5.23,2.39-5.22,5.26c0.01,2.87,2.38,5.23,5.25,5.24
		c2.89,0,5.29-2.42,5.25-5.29C401.07-101.21,398.7-103.56,395.83-103.54z"/>
</g>
<g>
	<path d="M366.16-12.76c-4.33,0-8.67,0-13,0c-1.79,0-2.73-0.95-2.73-2.75c0-4.7,0-9.4,0-14.1c0-1.78,0.96-2.72,2.76-2.74
		c0.4-0.01,0.82-0.05,1.21-0.16c6.58-1.76,13.15-3.53,19.72-5.3c1.68-0.45,2.61,0.08,3.07,1.76c0.28,1.01,0.55,2.02,0.79,3.04
		c0.11,0.49,0.32,0.77,0.87,0.67c0.18-0.03,0.36-0.01,0.55,0c1.52,0.03,2.53,1.03,2.53,2.55c0.01,4.84,0.01,9.67,0,14.51
		c0,1.51-1.02,2.52-2.55,2.52C374.97-12.75,370.56-12.76,366.16-12.76z M351.96-23.29c-0.01,0.24-0.03,0.42-0.03,0.59
		c0,2.42,0,4.84,0,7.25c0,0.91,0.27,1.19,1.18,1.19c8.71,0,17.43,0,26.14,0c0.9,0,1.17-0.28,1.17-1.19c0-2.42,0-4.84,0-7.25
		c0-0.19-0.03-0.39-0.05-0.59C370.88-23.29,361.46-23.29,351.96-23.29z M351.96-24.85c9.51,0,18.96,0,28.4,0c0-0.89,0-1.72,0-2.53
		c-9.5,0-18.93,0-28.4,0C351.96-26.53,351.96-25.71,351.96-24.85z M380.39-28.95c0.1-1.75-0.03-1.89-1.69-1.89
		c-8.42,0-16.83,0-25.25,0c-0.23,0-0.46-0.02-0.68,0.01c-0.49,0.06-0.8,0.33-0.83,0.84c-0.02,0.33,0,0.67,0,1.04
		C361.44-28.95,370.9-28.95,380.39-28.95z M376.65-32.36c-0.31-1.14-0.59-2.19-0.88-3.24c-0.25-0.9-0.4-0.99-1.3-0.75
		c-3.56,0.96-7.11,1.91-10.67,2.87c-1.28,0.34-2.56,0.68-3.84,1.02c0.01,0.03,0.02,0.07,0.03,0.1
		C365.5-32.36,371.01-32.36,376.65-32.36z"/>
</g>
<g>
	<path d="M352.57,21.3c0-3.5-0.01-7.01,0-10.51c0.01-2.75,1.64-4.72,4.23-5.14c0.3-0.05,0.61-0.05,0.92-0.05
		c3.95,0,7.91-0.01,11.86,0c3.08,0,5.17,2.09,5.18,5.16c0,0.72,0.01,1.43,0,2.15c-0.02,0.75-0.52,1.28-1.2,1.29
		c-0.71,0.01-1.23-0.52-1.25-1.3c-0.02-0.76,0.01-1.52-0.01-2.27c-0.03-1.52-1.04-2.55-2.56-2.56c-4.06-0.01-8.11-0.01-12.17,0
		c-1.45,0-2.42,0.95-2.53,2.39c-0.01,0.18-0.01,0.37-0.01,0.55c0,6.88-0.01,13.77,0.02,20.65c0,0.64,0.18,1.35,0.48,1.91
		c0.39,0.72,1.15,1.03,1.98,1.03c4.1,0.01,8.2,0.01,12.29,0c1.45-0.01,2.46-1.05,2.49-2.49c0.02-0.76,0-1.52,0.01-2.27
		c0.01-0.83,0.52-1.38,1.25-1.37c0.71,0.01,1.21,0.55,1.2,1.35c-0.01,1.1,0.05,2.23-0.13,3.31c-0.36,2.23-2.36,3.91-4.62,3.93
		c-4.22,0.03-8.44,0.03-12.66,0c-2.5-0.02-4.64-2.01-4.73-4.51c-0.11-2.91-0.04-5.82-0.05-8.73
		C352.56,22.98,352.57,22.14,352.57,21.3z"/>
	<path d="M380.41,22.63c-0.24,0-0.47,0-0.71,0c-4.45,0-8.89,0-13.34,0c-1.18,0-1.75-0.41-1.74-1.25c0.01-0.81,0.57-1.21,1.71-1.22
		c4.45,0,8.89,0,13.34,0c0.24,0,0.48,0,0.92,0c-0.67-0.67-1.22-1.2-1.74-1.76c-0.21-0.22-0.42-0.47-0.51-0.75
		c-0.16-0.54,0.01-1.03,0.5-1.34c0.48-0.31,1.02-0.32,1.43,0.07c1.08,1.03,2.18,2.06,3.14,3.19c0.94,1.11,0.8,2.82-0.2,3.89
		c-0.9,0.95-1.84,1.87-2.78,2.79c-0.56,0.55-1.32,0.54-1.81,0.03c-0.47-0.49-0.46-1.21,0.08-1.76c0.58-0.59,1.19-1.15,1.79-1.73
		C380.48,22.75,380.45,22.69,380.41,22.63z"/>
</g>
<g>
	<path d="M495.3-43.22c-8.69-0.02-15.75-7.12-15.72-15.8c0.03-8.66,7.11-15.7,15.78-15.68c8.69,0.02,15.75,7.12,15.72,15.8
		C511.05-50.24,503.97-43.2,495.3-43.22z M495.33-45.67c7.34,0,13.3-5.95,13.3-13.29c0-7.34-5.95-13.29-13.29-13.29
		c-7.34,0-13.3,5.95-13.3,13.29C482.04-51.62,487.99-45.67,495.33-45.67z"/>
	<path d="M494.11-57.85c-1.65,0-3.21,0.01-4.76,0c-0.94-0.01-1.52-0.75-1.26-1.59c0.16-0.54,0.63-0.85,1.35-0.85
		c1.31-0.01,2.62,0,3.93,0c0.22,0,0.44,0,0.75,0c0-0.59,0-1.13,0-1.68c0-1.04-0.01-2.09,0.01-3.13c0.02-0.76,0.52-1.26,1.22-1.26
		c0.7,0,1.21,0.5,1.22,1.26c0.02,1.57,0.01,3.15,0.01,4.81c0.89,0,1.75,0,2.6,0c0.7,0,1.39-0.01,2.09,0
		c0.86,0.01,1.39,0.48,1.39,1.22c0,0.74-0.53,1.22-1.38,1.22c-1.53,0.01-3.07,0-4.7,0c0,0.25,0,0.46,0,0.68c0,1.35,0.01,2.7,0,4.05
		c-0.01,0.8-0.5,1.34-1.2,1.36c-0.72,0.02-1.25-0.54-1.25-1.37C494.1-54.68,494.11-56.23,494.11-57.85z"/>
</g>
<path d="M472.8,73.52c-0.91-1.39-1.16-2.77-0.66-4.22c0.63-1.81,1.94-2.88,3.83-3.12c1.82-0.23,3.33,0.41,4.3,2.01
	c0.55,0.9,0.95,1.9,1.41,2.86c0.11,0.24,0.2,0.48,0.36,0.85c0.13-0.29,0.21-0.48,0.3-0.67c0.43-0.93,0.81-1.88,1.31-2.77
	c1.56-2.8,4.57-2.68,6.26-1.68c2.22,1.31,2.93,4.07,1.61,6.36c-0.06,0.1-0.11,0.21-0.2,0.39c1.18,0,2.28,0,3.38,0
	c1.97,0,3.09,1.12,3.1,3.08c0,0.53,0.01,1.07-0.01,1.6c-0.04,1.02-0.5,1.82-1.38,2.31c-0.36,0.2-0.46,0.41-0.46,0.81
	c0.01,4.38,0.01,8.76,0.01,13.14c0,2.05-1.1,3.16-3.14,3.16c-7.17,0-14.34,0-21.51,0c-2.05,0-3.15-1.1-3.15-3.15
	c0-4.38-0.01-8.76,0.01-13.14c0-0.39-0.09-0.61-0.45-0.81c-0.89-0.49-1.35-1.29-1.39-2.31c-0.02-0.63-0.02-1.27,0-1.9
	c0.04-1.59,1.19-2.74,2.78-2.77C470.28,73.5,471.49,73.52,472.8,73.52z M470.03,80.92c-0.02,0.11-0.04,0.17-0.04,0.23
	c0,4.52-0.01,9.04,0,13.56c0,0.71,0.35,1.04,1.07,1.05c1.35,0.01,2.7,0,4.05,0c1.06,0,2.12,0,3.2,0c0-4.98,0-9.9,0-14.84
	C475.54,80.92,472.81,80.92,470.03,80.92z M485.76,95.76c2.4,0,4.74,0,7.07,0c0.98,0,1.26-0.29,1.26-1.29c0-4.32,0-8.63,0-12.95
	c0-0.2-0.02-0.39-0.03-0.58c-2.8,0-5.55,0-8.3,0C485.76,85.89,485.76,90.8,485.76,95.76z M480.24,75.4c0,6.81,0,13.57,0,20.34
	c1.22,0,2.4,0,3.61,0c0-6.79,0-13.55,0-20.34C482.64,75.4,481.46,75.4,480.24,75.4z M478.32,75.37c-3.1,0-6.13-0.01-9.17,0
	c-0.64,0-0.98,0.35-1.01,0.99c-0.02,0.47-0.01,0.94,0,1.41c0,0.99,0.29,1.28,1.28,1.28c2.77,0,5.53,0,8.3,0
	c0.2,0,0.39-0.02,0.6-0.03C478.32,77.79,478.32,76.61,478.32,75.37z M485.75,79.05c3.14,0,6.22,0.01,9.31-0.01
	c0.54,0,0.85-0.38,0.87-0.93c0.02-0.49,0.01-0.98,0.01-1.47c0-0.98-0.29-1.26-1.29-1.26c-2.77,0-5.53,0-8.3,0c-0.2,0-0.39,0-0.6,0
	C485.75,76.62,485.75,77.79,485.75,79.05z M480.67,73.5c-0.71-1.62-1.16-3.29-2.23-4.67c-0.22-0.28-0.55-0.52-0.87-0.65
	c-1.09-0.41-2.11-0.22-2.96,0.58c-0.83,0.79-1.06,1.78-0.7,2.87c0.37,1.12,1.2,1.78,2.36,1.85C477.7,73.56,479.14,73.5,480.67,73.5z
	 M483.41,73.5c1.55,0,3,0.01,4.45-0.01c0.2,0,0.4-0.07,0.6-0.13c1.1-0.36,1.84-1.39,1.86-2.56c0.02-1.16-0.69-2.21-1.77-2.62
	c-1.11-0.42-2.3-0.17-2.95,0.7C484.55,70.25,484.11,71.9,483.41,73.5z"/>
<path d="M264.54-140.98c-0.02,2.03-1.98,3.22-3.75,2.33c-2.11-1.07-4.19-2.17-6.27-3.3c-0.5-0.27-0.89-0.25-1.38,0.01
	c-2,1.08-4.02,2.11-6.02,3.18c-0.98,0.53-1.95,0.61-2.89-0.04c-0.97-0.67-1.23-1.63-1.03-2.76c0.39-2.26,0.77-4.52,1.18-6.77
	c0.1-0.52,0-0.88-0.4-1.26c-1.66-1.58-3.29-3.2-4.94-4.79c-0.83-0.8-1.17-1.73-0.81-2.83c0.36-1.09,1.2-1.6,2.3-1.76
	c2.32-0.33,4.63-0.67,6.95-0.98c0.43-0.06,0.68-0.25,0.87-0.64c1.01-2.08,2.05-4.15,3.05-6.23c0.5-1.02,1.23-1.69,2.41-1.7
	c1.21-0.01,1.97,0.66,2.47,1.71c1.01,2.08,2.05,4.15,3.05,6.23c0.19,0.4,0.45,0.57,0.87,0.63c2.29,0.32,4.58,0.66,6.88,0.97
	c1.13,0.15,1.99,0.65,2.36,1.77c0.36,1.11,0.02,2.04-0.81,2.83c-1.66,1.59-3.28,3.21-4.94,4.79c-0.4,0.38-0.49,0.74-0.39,1.26
	c0.41,2.21,0.78,4.42,1.16,6.64C264.51-141.42,264.52-141.15,264.54-140.98z M253.81-144.52c0.49,0.17,0.98,0.28,1.42,0.5
	c2.06,1.06,4.1,2.15,6.16,3.21c0.24,0.13,0.54,0.14,0.82,0.21c0.03-0.28,0.12-0.57,0.08-0.83c-0.37-2.24-0.75-4.47-1.16-6.71
	c-0.2-1.11,0.04-2.04,0.88-2.84c1.7-1.61,3.36-3.25,5.03-4.9c0.16-0.16,0.22-0.41,0.33-0.62c-0.21-0.1-0.41-0.26-0.63-0.3
	c-2.33-0.36-4.67-0.7-7.01-1.02c-1.09-0.15-1.82-0.72-2.29-1.7c-1-2.06-2.02-4.11-3.05-6.16c-0.12-0.24-0.35-0.43-0.53-0.65
	c-0.18,0.21-0.43,0.39-0.55,0.63c-1.04,2.07-2.06,4.14-3.08,6.22c-0.45,0.93-1.14,1.49-2.18,1.64c-2.34,0.33-4.67,0.68-7.01,1.04
	c-0.25,0.04-0.48,0.19-0.71,0.29c0.13,0.24,0.22,0.53,0.41,0.72c1.61,1.6,3.23,3.2,4.88,4.75c0.88,0.83,1.16,1.78,0.94,2.95
	c-0.41,2.21-0.78,4.42-1.15,6.64c-0.04,0.27,0.04,0.56,0.06,0.84c0.27-0.06,0.58-0.06,0.82-0.19c2.06-1.06,4.1-2.15,6.16-3.21
	C252.87-144.22,253.33-144.34,253.81-144.52z"/>
<g>
	<path d="M17.23,31.14c-3.55-0.12-7.11-0.22-10.66-0.37c-0.77-0.03-1.55-0.16-2.29-0.36c-2.29-0.59-3.69-2.32-3.75-4.82
		C0.39,20.1,0.31,14.61,0.25,9.11C0.24,8.07,0.37,7.02,0.48,5.98c0.21-2.01,1.37-3.32,3.18-4.11c1.92-0.85,3.98-1.01,6.03-1
		c3.51,0,7.01,0.09,10.52,0.16c2,0.04,4.01,0.03,6,0.24c3.16,0.33,5.17,2.44,5.27,5.62c0.17,5.79,0.21,11.58,0.27,17.37
		c0.01,0.79-0.13,1.59-0.3,2.37c-0.57,2.66-2.39,4.23-5.13,4.29c-3.03,0.07-6.06,0.02-9.09,0.02
		C17.23,31.01,17.23,31.07,17.23,31.14z M22.27,1.35c-4.62,0-9.2-0.05-13.78,0.03c-1.38,0.03-2.79,0.3-4.12,0.7
		c-2.3,0.69-3.53,2.26-3.54,4.65C0.82,13,0.86,19.26,0.97,25.53c0.05,2.73,1.63,4.38,4.36,4.63c2.56,0.24,5.15,0.38,7.72,0.41
		c4.43,0.04,8.87,0.01,13.3-0.1c2.6-0.06,4.15-1.48,4.68-4.03c0.15-0.73,0.27-1.48,0.27-2.22c-0.03-5.49-0.08-10.99-0.15-16.48
		c-0.02-1.36-0.29-2.68-1.07-3.84c-0.52-0.78-1.19-1.37-2.13-1.71c-0.08,1.08-0.14,2.08-0.22,3.07c-0.09,1.06-0.47,1.95-1.5,2.41
		c-1.49,0.67-3.12-0.35-3.42-2.19C22.58,4.19,22.47,2.9,22.27,1.35z M22.7,1.39c0.23,1.64,0.37,3.05,0.64,4.43
		c0.19,0.98,1.09,1.61,2.01,1.59c0.93-0.02,1.73-0.7,1.87-1.73c0.14-1.08,0.18-2.19,0.22-3.28c0.01-0.17-0.22-0.49-0.36-0.51
		C25.67,1.7,24.27,1.56,22.7,1.39z"/>
	<path d="M16.01,27.4c-5.99,0.01-10.84-4.7-10.84-10.52c0-5.83,4.83-10.54,10.82-10.54c6,0,10.84,4.69,10.84,10.52
		C26.84,22.69,22.01,27.39,16.01,27.4z M26.38,16.92c0.01-5.63-4.56-10.12-10.32-10.15C10.29,6.75,5.63,11.23,5.62,16.81
		c-0.01,5.62,4.66,10.2,10.4,10.19C21.7,26.98,26.37,22.45,26.38,16.92z"/>
	<path d="M16.02,23.45c-3.75,0-6.79-2.93-6.79-6.56c-0.01-3.62,3.05-6.62,6.75-6.63c3.71-0.01,6.78,2.97,6.79,6.59
		C22.78,20.49,19.76,23.44,16.02,23.45z M16.02,23.01c3.52-0.01,6.31-2.74,6.3-6.18c-0.01-3.37-2.83-6.11-6.3-6.12
		c-3.51-0.01-6.34,2.74-6.34,6.15C9.68,20.29,12.49,23.01,16.02,23.01z"/>
</g>
</svg>
