<?xml version="1.0" encoding="utf-8"?>
<!-- Generator: Adobe Illustrator 24.3.0, SVG Export Plug-In . SVG Version: 6.00 Build 0)  -->
<svg version="1.1" id="Layer_1" xmlns="http://www.w3.org/2000/svg" xmlns:xlink="http://www.w3.org/1999/xlink" x="0px" y="0px"
	 viewBox="0 0 32 32" style="enable-background:new 0 0 32 32;" xml:space="preserve">
<style type="text/css">
	.st0{fill:none;stroke:#FFFFFF;stroke-width:7;stroke-miterlimit:10;}
</style>
<path d="M359.32-192.71c-1.37,0.01-2.74,0.01-4.11,0.01c-2.12,0.01-3.18,1-3.18,3.02c0,6.04,0,12.09,0,18.13
	c0,2.01,1.07,3.02,3.18,3.02c7.18,0,14.36,0,21.55,0c2.32,0,3.34-0.96,3.34-3.14c0-5.95,0-11.91,0-17.86c0-0.25,0-0.5-0.02-0.75
	c-0.11-1.35-1.21-2.37-2.64-2.41c-1.27-0.03-2.55-0.01-3.82-0.01c-0.25,0-0.51,0-0.83,0c0.01-0.24,0.02-0.47,0.02-0.7
	c-0.01-1.67-0.46-3.16-1.61-4.42c-1.31-1.44-2.99-2.18-5-2.2c-1.65-0.01-3.11,0.5-4.36,1.53c-1.65,1.37-2.3,3.12-2.29,5.09
	c0,0.2,0,0.41,0.02,0.61C359.41-192.74,359.37-192.71,359.32-192.71z M372.77-187.6c0.02,3.28-2.47,5.81-5.98,6.11
	c-3.47,0.29-6.53-1.82-7.13-4.96c-0.13-0.66-0.08-1.36-0.07-2.04c0.01-0.45,0.31-0.73,0.78-0.73c0.51,0,0.79,0.28,0.81,0.77
	c0.01,0.32,0,0.64,0.01,0.95c0.03,2.58,2.18,4.51,5.01,4.5c2.81-0.01,4.92-1.92,4.94-4.47c0-0.34-0.1-0.73,0.04-1.01
	c0.14-0.3,0.48-0.63,0.8-0.7c0.45-0.1,0.74,0.26,0.79,0.7C372.8-188.19,372.77-187.9,372.77-187.6z M363.32-197.67
	c1.71-1.12,3.57-1.2,5.36-0.21c1.83,1.01,2.51,2.58,2.45,4.48c-0.01,0.21-0.02,0.43-0.04,0.65c-3.27,0-6.54,0-9.85,0
	c-0.02-0.22-0.04-0.44-0.04-0.65C361.15-195.13,361.72-196.61,363.32-197.67z"/>
<g>
	<path d="M395.87-82.55c-0.47,0-0.94,0.01-1.41,0c-1.11-0.02-1.88-0.72-2.03-1.83c-0.08-0.65-0.14-1.3-0.27-1.95
		c-0.04-0.2-0.25-0.41-0.43-0.54c-1.01-0.75-1.89-0.5-2.69,0.38c-0.19,0.21-0.44,0.36-0.68,0.53c-0.86,0.61-1.82,0.56-2.58-0.17
		c-0.71-0.68-1.41-1.37-2.09-2.09c-0.72-0.76-0.78-1.72-0.15-2.57c0.41-0.56,0.87-1.09,1.26-1.66c0.11-0.16,0.1-0.42,0.09-0.64
		c-0.01-0.13-0.15-0.25-0.17-0.39c-0.15-1.02-0.86-1.2-1.74-1.26c-2.17-0.13-3.01-0.65-2.87-3.13c0.03-0.59,0-1.19,0.01-1.78
		c0.01-1.18,0.72-1.94,1.91-2.08c0.63-0.07,1.26-0.13,1.88-0.26c0.19-0.04,0.39-0.22,0.51-0.39c0.69-1.02,0.58-1.93-0.37-2.75
		c-0.24-0.21-0.42-0.5-0.6-0.78c-0.51-0.78-0.46-1.71,0.17-2.38c0.71-0.76,1.45-1.5,2.21-2.22c0.73-0.68,1.69-0.71,2.53-0.1
		c0.56,0.41,1.09,0.87,1.66,1.26c0.16,0.11,0.43,0.12,0.64,0.08c1.16-0.24,1.78-0.91,1.66-2.16c-0.03-0.28,0.06-0.57,0.1-0.85
		c0.16-1.04,0.93-1.73,1.97-1.75c0.96-0.02,1.93-0.02,2.89,0c1.08,0.02,1.85,0.71,2,1.79c0.09,0.65,0.19,1.3,0.24,1.95
		c0.03,0.35,0.21,0.44,0.48,0.6c1.02,0.64,1.87,0.5,2.65-0.39c0.2-0.23,0.47-0.39,0.72-0.57c0.83-0.58,1.79-0.54,2.53,0.16
		c0.73,0.69,1.44,1.4,2.13,2.13c0.7,0.74,0.75,1.69,0.16,2.53c-0.41,0.57-0.87,1.09-1.26,1.66c-0.12,0.17-0.08,0.46-0.11,0.69
		c0,0.02,0.02,0.04,0.03,0.05c0.24,1.18,0.96,1.68,2.15,1.59c0.26-0.02,0.53,0.06,0.79,0.1c1.08,0.15,1.77,0.92,1.79,2
		c0.02,0.94,0.01,1.88,0,2.83c-0.01,1.12-0.7,1.89-1.81,2.04c-0.57,0.08-1.14,0.2-1.7,0.21c-0.56,0.01-0.69,0.33-0.94,0.74
		c-0.53,0.9-0.34,1.57,0.36,2.23c0.29,0.28,0.52,0.63,0.75,0.97c0.53,0.79,0.48,1.73-0.18,2.43c-0.7,0.75-1.43,1.47-2.17,2.17
		c-0.74,0.69-1.7,0.74-2.53,0.13c-0.56-0.41-1.09-0.87-1.66-1.26c-0.17-0.12-0.47-0.12-0.69-0.08c-1.21,0.22-1.72,0.96-1.63,2.18
		c0.02,0.26-0.06,0.53-0.1,0.79c-0.16,1.07-0.93,1.75-2.01,1.78C396.81-82.55,396.34-82.55,395.87-82.55z M407.35-107
		c-0.12-0.19-0.21-0.38-0.34-0.52c-0.61-0.63-1.25-1.24-1.86-1.87c-0.37-0.38-0.72-0.39-1.13-0.06c-0.67,0.54-1.36,1.05-2.03,1.59
		c-0.31,0.25-0.6,0.25-0.96,0.09c-0.67-0.31-1.35-0.59-2.04-0.84c-0.42-0.15-0.63-0.39-0.67-0.84c-0.09-0.85-0.22-1.7-0.33-2.56
		c-0.06-0.47-0.32-0.67-0.79-0.67c-0.9,0.01-1.8,0-2.7,0c-0.44,0-0.69,0.2-0.74,0.64c-0.11,0.85-0.25,1.7-0.33,2.56
		c-0.05,0.48-0.28,0.72-0.71,0.88c-0.67,0.24-1.33,0.51-1.98,0.82c-0.38,0.18-0.69,0.16-1.02-0.1c-0.67-0.54-1.36-1.05-2.03-1.59
		c-0.39-0.31-0.73-0.29-1.08,0.07c-0.6,0.62-1.2,1.23-1.83,1.82c-0.41,0.39-0.42,0.75-0.07,1.18c0.53,0.65,1.03,1.33,1.55,1.98
		c0.26,0.33,0.27,0.63,0.09,1.02c-0.31,0.66-0.58,1.35-0.84,2.04c-0.15,0.39-0.38,0.6-0.8,0.64c-0.85,0.09-1.7,0.23-2.56,0.33
		c-0.5,0.06-0.71,0.33-0.7,0.82c0.01,0.88,0.01,1.76,0,2.64c0,0.47,0.2,0.72,0.68,0.78c0.85,0.1,1.7,0.24,2.56,0.33
		c0.45,0.05,0.69,0.27,0.84,0.68c0.25,0.67,0.51,1.34,0.82,1.98c0.2,0.41,0.18,0.72-0.1,1.07c-0.54,0.67-1.06,1.36-1.59,2.03
		c-0.29,0.37-0.27,0.7,0.06,1.03c0.63,0.62,1.26,1.24,1.87,1.87c0.37,0.38,0.72,0.39,1.13,0.06c0.65-0.53,1.33-1.02,1.98-1.55
		c0.35-0.28,0.66-0.29,1.07-0.09c0.64,0.31,1.31,0.57,1.98,0.82c0.41,0.15,0.63,0.39,0.67,0.84c0.09,0.85,0.22,1.7,0.33,2.56
		c0.06,0.47,0.32,0.67,0.79,0.67c0.9-0.01,1.8,0,2.7,0c0.44,0,0.69-0.2,0.74-0.65c0.11-0.85,0.25-1.7,0.33-2.56
		c0.05-0.48,0.28-0.72,0.71-0.88c0.65-0.23,1.3-0.49,1.92-0.79c0.4-0.19,0.71-0.22,1.07,0.07c0.67,0.54,1.36,1.05,2.03,1.59
		c0.39,0.31,0.73,0.29,1.08-0.07c0.6-0.62,1.2-1.23,1.83-1.82c0.41-0.39,0.41-0.75,0.06-1.18c-0.53-0.65-1.03-1.33-1.55-1.98
		c-0.27-0.33-0.27-0.63-0.09-1.01c0.31-0.66,0.58-1.35,0.84-2.04c0.15-0.39,0.38-0.59,0.8-0.64c0.85-0.09,1.7-0.23,2.56-0.33
		c0.5-0.06,0.71-0.33,0.7-0.82c-0.01-0.88-0.01-1.76,0-2.64c0-0.47-0.21-0.72-0.68-0.78c-0.83-0.1-1.66-0.25-2.5-0.32
		c-0.51-0.04-0.76-0.28-0.92-0.75c-0.22-0.64-0.47-1.27-0.77-1.87c-0.21-0.42-0.23-0.75,0.08-1.12c0.52-0.63,1.02-1.29,1.51-1.94
		C407.13-106.57,407.22-106.78,407.35-107z"/>
	<path d="M402.41-98.3c0,3.64-2.91,6.56-6.55,6.55c-3.64,0-6.55-2.93-6.54-6.57c0.01-3.61,2.91-6.51,6.52-6.52
		C399.48-104.84,402.4-101.94,402.41-98.3z M395.83-103.54c-2.88,0.02-5.23,2.39-5.22,5.26c0.01,2.87,2.38,5.23,5.25,5.24
		c2.89,0,5.29-2.42,5.25-5.29C401.07-101.21,398.7-103.56,395.83-103.54z"/>
</g>
<g>
	<path d="M366.16-12.76c-4.33,0-8.67,0-13,0c-1.79,0-2.73-0.95-2.73-2.75c0-4.7,0-9.4,0-14.1c0-1.78,0.96-2.72,2.76-2.74
		c0.4-0.01,0.82-0.05,1.21-0.16c6.58-1.76,13.15-3.53,19.72-5.3c1.68-0.45,2.61,0.08,3.07,1.76c0.28,1.01,0.55,2.02,0.79,3.04
		c0.11,0.49,0.32,0.77,0.87,0.67c0.18-0.03,0.36-0.01,0.55,0c1.52,0.03,2.53,1.03,2.53,2.55c0.01,4.84,0.01,9.67,0,14.51
		c0,1.51-1.02,2.52-2.55,2.52C374.97-12.75,370.56-12.76,366.16-12.76z M351.96-23.29c-0.01,0.24-0.03,0.42-0.03,0.59
		c0,2.42,0,4.84,0,7.25c0,0.91,0.27,1.19,1.18,1.19c8.71,0,17.43,0,26.14,0c0.9,0,1.17-0.28,1.17-1.19c0-2.42,0-4.84,0-7.25
		c0-0.19-0.03-0.39-0.05-0.59C370.88-23.29,361.46-23.29,351.96-23.29z M351.96-24.85c9.51,0,18.96,0,28.4,0c0-0.89,0-1.72,0-2.53
		c-9.5,0-18.93,0-28.4,0C351.96-26.53,351.96-25.71,351.96-24.85z M380.39-28.95c0.1-1.75-0.03-1.89-1.69-1.89
		c-8.42,0-16.83,0-25.25,0c-0.23,0-0.46-0.02-0.68,0.01c-0.49,0.06-0.8,0.33-0.83,0.84c-0.02,0.33,0,0.67,0,1.04
		C361.44-28.95,370.9-28.95,380.39-28.95z M376.65-32.36c-0.31-1.14-0.59-2.19-0.88-3.24c-0.25-0.9-0.4-0.99-1.3-0.75
		c-3.56,0.96-7.11,1.91-10.67,2.87c-1.28,0.34-2.56,0.68-3.84,1.02c0.01,0.03,0.02,0.07,0.03,0.1
		C365.5-32.36,371.01-32.36,376.65-32.36z"/>
</g>
<g>
	<path d="M352.57,21.3c0-3.5-0.01-7.01,0-10.51c0.01-2.75,1.64-4.72,4.23-5.14c0.3-0.05,0.61-0.05,0.92-0.05
		c3.95,0,7.91-0.01,11.86,0c3.08,0,5.17,2.09,5.18,5.16c0,0.72,0.01,1.43,0,2.15c-0.02,0.75-0.52,1.28-1.2,1.29
		c-0.71,0.01-1.23-0.52-1.25-1.3c-0.02-0.76,0.01-1.52-0.01-2.27c-0.03-1.52-1.04-2.55-2.56-2.56c-4.06-0.01-8.11-0.01-12.17,0
		c-1.45,0-2.42,0.95-2.53,2.39c-0.01,0.18-0.01,0.37-0.01,0.55c0,6.88-0.01,13.77,0.02,20.65c0,0.64,0.18,1.35,0.48,1.91
		c0.39,0.72,1.15,1.03,1.98,1.03c4.1,0.01,8.2,0.01,12.29,0c1.45-0.01,2.46-1.05,2.49-2.49c0.02-0.76,0-1.52,0.01-2.27
		c0.01-0.83,0.52-1.38,1.25-1.37c0.71,0.01,1.21,0.55,1.2,1.35c-0.01,1.1,0.05,2.23-0.13,3.31c-0.36,2.23-2.36,3.91-4.62,3.93
		c-4.22,0.03-8.44,0.03-12.66,0c-2.5-0.02-4.64-2.01-4.73-4.51c-0.11-2.91-0.04-5.82-0.05-8.73
		C352.56,22.98,352.57,22.14,352.57,21.3z"/>
	<path d="M380.41,22.63c-0.24,0-0.47,0-0.71,0c-4.45,0-8.89,0-13.34,0c-1.18,0-1.75-0.41-1.74-1.25c0.01-0.81,0.57-1.21,1.71-1.22
		c4.45,0,8.89,0,13.34,0c0.24,0,0.48,0,0.92,0c-0.67-0.67-1.22-1.2-1.74-1.76c-0.21-0.22-0.42-0.47-0.51-0.75
		c-0.16-0.54,0.01-1.03,0.5-1.34c0.48-0.31,1.02-0.32,1.43,0.07c1.08,1.03,2.18,2.06,3.14,3.19c0.94,1.11,0.8,2.82-0.2,3.89
		c-0.9,0.95-1.84,1.87-2.78,2.79c-0.56,0.55-1.32,0.54-1.81,0.03c-0.47-0.49-0.46-1.21,0.08-1.76c0.58-0.59,1.19-1.15,1.79-1.73
		C380.48,22.75,380.45,22.69,380.41,22.63z"/>
</g>
<g>
	<path d="M495.3-43.22c-8.69-0.02-15.75-7.12-15.72-15.8c0.03-8.66,7.11-15.7,15.78-15.68c8.69,0.02,15.75,7.12,15.72,15.8
		C511.05-50.24,503.97-43.2,495.3-43.22z M495.33-45.67c7.34,0,13.3-5.95,13.3-13.29c0-7.34-5.95-13.29-13.29-13.29
		c-7.34,0-13.3,5.95-13.3,13.29C482.04-51.62,487.99-45.67,495.33-45.67z"/>
	<path d="M494.11-57.85c-1.65,0-3.21,0.01-4.76,0c-0.94-0.01-1.52-0.75-1.26-1.59c0.16-0.54,0.63-0.85,1.35-0.85
		c1.31-0.01,2.62,0,3.93,0c0.22,0,0.44,0,0.75,0c0-0.59,0-1.13,0-1.68c0-1.04-0.01-2.09,0.01-3.13c0.02-0.76,0.52-1.26,1.22-1.26
		c0.7,0,1.21,0.5,1.22,1.26c0.02,1.57,0.01,3.15,0.01,4.81c0.89,0,1.75,0,2.6,0c0.7,0,1.39-0.01,2.09,0
		c0.86,0.01,1.39,0.48,1.39,1.22c0,0.74-0.53,1.22-1.38,1.22c-1.53,0.01-3.07,0-4.7,0c0,0.25,0,0.46,0,0.68c0,1.35,0.01,2.7,0,4.05
		c-0.01,0.8-0.5,1.34-1.2,1.36c-0.72,0.02-1.25-0.54-1.25-1.37C494.1-54.68,494.11-56.23,494.11-57.85z"/>
</g>
<path d="M472.8,73.52c-0.91-1.39-1.16-2.77-0.66-4.22c0.63-1.81,1.94-2.88,3.83-3.12c1.82-0.23,3.33,0.41,4.3,2.01
	c0.55,0.9,0.95,1.9,1.41,2.86c0.11,0.24,0.2,0.48,0.36,0.85c0.13-0.29,0.21-0.48,0.3-0.67c0.43-0.93,0.81-1.88,1.31-2.77
	c1.56-2.8,4.57-2.68,6.26-1.68c2.22,1.31,2.93,4.07,1.61,6.36c-0.06,0.1-0.11,0.21-0.2,0.39c1.18,0,2.28,0,3.38,0
	c1.97,0,3.09,1.12,3.1,3.08c0,0.53,0.01,1.07-0.01,1.6c-0.04,1.02-0.5,1.82-1.38,2.31c-0.36,0.2-0.46,0.41-0.46,0.81
	c0.01,4.38,0.01,8.76,0.01,13.14c0,2.05-1.1,3.16-3.14,3.16c-7.17,0-14.34,0-21.51,0c-2.05,0-3.15-1.1-3.15-3.15
	c0-4.38-0.01-8.76,0.01-13.14c0-0.39-0.09-0.61-0.45-0.81c-0.89-0.49-1.35-1.29-1.39-2.31c-0.02-0.63-0.02-1.27,0-1.9
	c0.04-1.59,1.19-2.74,2.78-2.77C470.28,73.5,471.49,73.52,472.8,73.52z M470.03,80.92c-0.02,0.11-0.04,0.17-0.04,0.23
	c0,4.52-0.01,9.04,0,13.56c0,0.71,0.35,1.04,1.07,1.05c1.35,0.01,2.7,0,4.05,0c1.06,0,2.12,0,3.2,0c0-4.98,0-9.9,0-14.84
	C475.54,80.92,472.81,80.92,470.03,80.92z M485.76,95.76c2.4,0,4.74,0,7.07,0c0.98,0,1.26-0.29,1.26-1.29c0-4.32,0-8.63,0-12.95
	c0-0.2-0.02-0.39-0.03-0.58c-2.8,0-5.55,0-8.3,0C485.76,85.89,485.76,90.8,485.76,95.76z M480.24,75.4c0,6.81,0,13.57,0,20.34
	c1.22,0,2.4,0,3.61,0c0-6.79,0-13.55,0-20.34C482.64,75.4,481.46,75.4,480.24,75.4z M478.32,75.37c-3.1,0-6.13-0.01-9.17,0
	c-0.64,0-0.98,0.35-1.01,0.99c-0.02,0.47-0.01,0.94,0,1.41c0,0.99,0.29,1.28,1.28,1.28c2.77,0,5.53,0,8.3,0
	c0.2,0,0.39-0.02,0.6-0.03C478.32,77.79,478.32,76.61,478.32,75.37z M485.75,79.05c3.14,0,6.22,0.01,9.31-0.01
	c0.54,0,0.85-0.38,0.87-0.93c0.02-0.49,0.01-0.98,0.01-1.47c0-0.98-0.29-1.26-1.29-1.26c-2.77,0-5.53,0-8.3,0c-0.2,0-0.39,0-0.6,0
	C485.75,76.62,485.75,77.79,485.75,79.05z M480.67,73.5c-0.71-1.62-1.16-3.29-2.23-4.67c-0.22-0.28-0.55-0.52-0.87-0.65
	c-1.09-0.41-2.11-0.22-2.96,0.58c-0.83,0.79-1.06,1.78-0.7,2.87c0.37,1.12,1.2,1.78,2.36,1.85C477.7,73.56,479.14,73.5,480.67,73.5z
	 M483.41,73.5c1.55,0,3,0.01,4.45-0.01c0.2,0,0.4-0.07,0.6-0.13c1.1-0.36,1.84-1.39,1.86-2.56c0.02-1.16-0.69-2.21-1.77-2.62
	c-1.11-0.42-2.3-0.17-2.95,0.7C484.55,70.25,484.11,71.9,483.41,73.5z"/>
<path d="M264.54-140.98c-0.02,2.03-1.98,3.22-3.75,2.33c-2.11-1.07-4.19-2.17-6.27-3.3c-0.5-0.27-0.89-0.25-1.38,0.01
	c-2,1.08-4.02,2.11-6.02,3.18c-0.98,0.53-1.95,0.61-2.89-0.04c-0.97-0.67-1.23-1.63-1.03-2.76c0.39-2.26,0.77-4.52,1.18-6.77
	c0.1-0.52,0-0.88-0.4-1.26c-1.66-1.58-3.29-3.2-4.94-4.79c-0.83-0.8-1.17-1.73-0.81-2.83c0.36-1.09,1.2-1.6,2.3-1.76
	c2.32-0.33,4.63-0.67,6.95-0.98c0.43-0.06,0.68-0.25,0.87-0.64c1.01-2.08,2.05-4.15,3.05-6.23c0.5-1.02,1.23-1.69,2.41-1.7
	c1.21-0.01,1.97,0.66,2.47,1.71c1.01,2.08,2.05,4.15,3.05,6.23c0.19,0.4,0.45,0.57,0.87,0.63c2.29,0.32,4.58,0.66,6.88,0.97
	c1.13,0.15,1.99,0.65,2.36,1.77c0.36,1.11,0.02,2.04-0.81,2.83c-1.66,1.59-3.28,3.21-4.94,4.79c-0.4,0.38-0.49,0.74-0.39,1.26
	c0.41,2.21,0.78,4.42,1.16,6.64C264.51-141.42,264.52-141.15,264.54-140.98z M253.81-144.52c0.49,0.17,0.98,0.28,1.42,0.5
	c2.06,1.06,4.1,2.15,6.16,3.21c0.24,0.13,0.54,0.14,0.82,0.21c0.03-0.28,0.12-0.57,0.08-0.83c-0.37-2.24-0.75-4.47-1.16-6.71
	c-0.2-1.11,0.04-2.04,0.88-2.84c1.7-1.61,3.36-3.25,5.03-4.9c0.16-0.16,0.22-0.41,0.33-0.62c-0.21-0.1-0.41-0.26-0.63-0.3
	c-2.33-0.36-4.67-0.7-7.01-1.02c-1.09-0.15-1.82-0.72-2.29-1.7c-1-2.06-2.02-4.11-3.05-6.16c-0.12-0.24-0.35-0.43-0.53-0.65
	c-0.18,0.21-0.43,0.39-0.55,0.63c-1.04,2.07-2.06,4.14-3.08,6.22c-0.45,0.93-1.14,1.49-2.18,1.64c-2.34,0.33-4.67,0.68-7.01,1.04
	c-0.25,0.04-0.48,0.19-0.71,0.29c0.13,0.24,0.22,0.53,0.41,0.72c1.61,1.6,3.23,3.2,4.88,4.75c0.88,0.83,1.16,1.78,0.94,2.95
	c-0.41,2.21-0.78,4.42-1.15,6.64c-0.04,0.27,0.04,0.56,0.06,0.84c0.27-0.06,0.58-0.06,0.82-0.19c2.06-1.06,4.1-2.15,6.16-3.21
	C252.87-144.22,253.33-144.34,253.81-144.52z"/>
<g>
	<path d="M295.68-80.04c-3.55-0.12-7.11-0.22-10.66-0.37c-0.77-0.03-1.55-0.16-2.29-0.36c-2.29-0.59-3.69-2.32-3.75-4.82
		c-0.14-5.49-0.21-10.99-0.27-16.48c-0.01-1.04,0.12-2.09,0.23-3.13c0.21-2.01,1.37-3.32,3.18-4.11c1.92-0.85,3.98-1.01,6.03-1
		c3.51,0,7.01,0.09,10.52,0.16c2,0.04,4.01,0.03,6,0.24c3.16,0.33,5.17,2.44,5.27,5.62c0.17,5.79,0.21,11.58,0.27,17.37
		c0.01,0.79-0.13,1.59-0.3,2.37c-0.57,2.66-2.39,4.23-5.13,4.29c-3.03,0.07-6.06,0.02-9.09,0.02
		C295.69-80.18,295.69-80.11,295.68-80.04z M300.73-109.84c-4.62,0-9.2-0.05-13.78,0.03c-1.38,0.03-2.79,0.3-4.12,0.7
		c-2.3,0.69-3.53,2.26-3.54,4.65c-0.02,6.27,0.02,12.53,0.13,18.8c0.05,2.73,1.63,4.38,4.36,4.63c2.56,0.24,5.15,0.38,7.72,0.41
		c4.43,0.04,8.87,0.01,13.3-0.1c2.6-0.06,4.15-1.48,4.68-4.03c0.15-0.73,0.27-1.48,0.27-2.22c-0.03-5.49-0.08-10.99-0.15-16.48
		c-0.02-1.36-0.29-2.68-1.07-3.84c-0.52-0.78-1.19-1.37-2.13-1.71c-0.08,1.08-0.14,2.08-0.22,3.07c-0.09,1.06-0.47,1.95-1.5,2.41
		c-1.49,0.67-3.12-0.35-3.42-2.19C301.04-106.99,300.92-108.28,300.73-109.84z M301.16-109.79c0.23,1.64,0.37,3.05,0.64,4.43
		c0.19,0.98,1.09,1.61,2.01,1.59c0.93-0.02,1.73-0.7,1.87-1.73c0.14-1.08,0.18-2.19,0.22-3.28c0.01-0.17-0.22-0.49-0.36-0.51
		C304.13-109.48,302.72-109.62,301.16-109.79z"/>
	<path d="M294.46-83.79c-5.99,0.01-10.84-4.7-10.84-10.52c0-5.83,4.83-10.54,10.82-10.54c6,0,10.84,4.69,10.84,10.52
		C305.29-88.5,300.46-83.79,294.46-83.79z M304.83-94.26c0.01-5.63-4.56-10.12-10.32-10.15c-5.77-0.03-10.42,4.45-10.44,10.04
		c-0.01,5.62,4.66,10.2,10.4,10.19C300.16-84.2,304.82-88.73,304.83-94.26z"/>
	<path d="M294.47-87.74c-3.75,0-6.79-2.93-6.79-6.56c-0.01-3.62,3.05-6.62,6.75-6.63c3.71-0.01,6.78,2.97,6.79,6.59
		C301.23-90.7,298.21-87.74,294.47-87.74z M294.47-88.18c3.52-0.01,6.31-2.74,6.3-6.18c-0.01-3.37-2.83-6.11-6.3-6.12
		c-3.51-0.01-6.34,2.74-6.34,6.15C288.14-90.9,290.95-88.17,294.47-88.18z"/>
</g>
<path d="M347.89-147.95c8.7-0.01,15.78,7.05,15.78,15.74c0,8.66-7.06,15.73-15.72,15.74c-8.7,0.01-15.78-7.06-15.78-15.74
	C332.16-140.87,339.22-147.94,347.89-147.95z M359.48-124.83c3.33-4.92,3.14-12.61-2.31-17.56c-5.33-4.85-13.42-4.78-18.66,0.13
	c-5.38,5.04-5.41,12.69-2.16,17.42c0.89-3.58,2.92-6.26,6.12-8.02c-2.57-3.59-1.36-7.49,0.92-9.46c2.56-2.2,6.25-2.26,8.87-0.15
	c2.23,1.79,3.83,5.72,1.11,9.62C356.57-131.1,358.59-128.41,359.48-124.83z M347.89-118.43c3.66-0.06,6.82-1.3,9.47-3.79
	c0.2-0.19,0.38-0.56,0.35-0.83c-0.35-3.65-2.14-6.37-5.39-8.11c-0.36-0.19-0.63-0.2-1.01,0.01c-2.25,1.24-4.54,1.24-6.79,0
	c-0.38-0.21-0.66-0.2-1.01-0.01c-3.25,1.74-5.04,4.45-5.39,8.11c-0.03,0.27,0.14,0.64,0.35,0.83
	C341.11-119.74,344.28-118.5,347.89-118.43z M343-137.18c-0.02,2.72,2.17,4.96,4.88,4.97c2.7,0.02,4.92-2.15,4.96-4.83
	c0.04-2.72-2.14-4.97-4.85-5C345.26-142.07,343.02-139.89,343-137.18z"/>
<g>
	<path d="M294.55-28.73c0.01,1.76-0.01,1.58,1.59,1.94c2.33,0.52,2.77,1.43,1.72,3.58c-0.78,1.62-0.73,1.39,0.55,2.44
		c0.02,0.01,0.04,0.03,0.05,0.04c1.82,1.44,1.81,2.49-0.02,3.95c-1.34,1.07-1.37,0.83-0.57,2.48c1.02,2.12,0.59,3.02-1.7,3.54
		c-1.66,0.38-1.62,0.17-1.62,2.05c0,0.09,0,0.18,0,0.27c-0.03,1.97-0.84,2.58-2.79,2.18c-2.09-0.43-1.7-0.7-2.69,1.28
		c-0.14,0.28-0.29,0.56-0.47,0.81c-0.61,0.83-1.41,1.02-2.29,0.5c-0.59-0.35-1.13-0.8-1.67-1.23c-0.39-0.31-0.75-0.32-1.14,0
		c-0.51,0.4-1.01,0.82-1.56,1.16c-0.99,0.62-1.84,0.44-2.48-0.54c-0.35-0.54-0.62-1.13-0.9-1.71c-0.23-0.48-0.55-0.64-1.08-0.51
		c-0.6,0.15-1.22,0.3-1.84,0.35c-1.29,0.11-1.97-0.51-2.04-1.81c-0.03-0.58-0.03-1.16-0.03-1.74c0-0.47-0.22-0.74-0.69-0.85
		c-0.63-0.14-1.27-0.27-1.88-0.49c-1.13-0.4-1.51-1.2-1.13-2.33c0.19-0.55,0.44-1.07,0.71-1.59c0.3-0.57,0.24-1.01-0.31-1.37
		c-0.28-0.19-0.53-0.41-0.79-0.62c-1.57-1.29-1.56-2.36,0.02-3.65c0.28-0.23,0.55-0.46,0.84-0.67c0.47-0.33,0.53-0.72,0.28-1.22
		c-0.26-0.52-0.52-1.04-0.72-1.58c-0.44-1.22-0.04-2.05,1.19-2.46c0.57-0.19,1.16-0.31,1.75-0.44c0.49-0.11,0.73-0.39,0.72-0.89
		c0-0.54,0-1.07,0.02-1.61c0.07-1.44,0.77-2.06,2.21-1.9c0.57,0.06,1.14,0.2,1.7,0.35c0.5,0.13,0.81-0.03,1.03-0.48
		c0.26-0.54,0.51-1.09,0.82-1.61c0.7-1.14,1.6-1.34,2.72-0.6c0.52,0.34,1,0.75,1.5,1.13c0.33,0.26,0.64,0.25,0.97,0
		c0.51-0.39,1.01-0.81,1.55-1.16c1.06-0.69,1.96-0.49,2.62,0.57c0.33,0.53,0.59,1.1,0.86,1.66c0.22,0.45,0.53,0.61,1.03,0.49
		c0.56-0.14,1.13-0.28,1.7-0.35c1.44-0.16,2.14,0.46,2.22,1.9C294.56-29.22,294.55-28.98,294.55-28.73z M280.84-32.82
		c-0.37,0.71-0.69,1.34-1.02,1.96c-0.61,1.13-1.2,1.43-2.45,1.25c-0.53-0.08-1.06-0.18-1.57-0.32c-0.59-0.16-0.77,0.09-0.77,0.62
		c0,0.56-0.01,1.12-0.04,1.67c-0.08,1.12-0.5,1.66-1.57,1.99c-0.47,0.14-0.96,0.22-1.43,0.34c-0.89,0.22-0.93,0.3-0.56,1.12
		c0.17,0.39,0.37,0.76,0.54,1.15c0.54,1.25,0.37,1.97-0.66,2.84c-0.29,0.25-0.59,0.47-0.89,0.71c-0.8,0.65-0.8,0.75-0.02,1.39
		c0.41,0.34,0.84,0.67,1.23,1.03c0.61,0.57,0.81,1.27,0.51,2.07c-0.12,0.33-0.26,0.66-0.41,0.99c-0.79,1.66-0.84,1.48,0.95,1.9
		c1.91,0.45,2.33,0.94,2.34,2.88c0.01,2.05-0.04,1.76,1.74,1.38c1.88-0.39,2.47-0.13,3.31,1.58c0.24,0.49,0.51,0.96,0.8,1.5
		c0.36-0.25,0.62-0.41,0.87-0.6c2.23-1.73,2.48-1.73,4.68-0.02c0.26,0.2,0.54,0.37,0.92,0.62c0.35-0.68,0.65-1.29,0.97-1.89
		c0.63-1.19,1.24-1.5,2.56-1.3c0.51,0.08,1.01,0.17,1.51,0.31c0.59,0.16,0.77-0.09,0.77-0.62c0-0.54,0-1.07,0.04-1.61
		c0.08-1.22,0.52-1.76,1.7-2.09c0.41-0.11,0.83-0.19,1.24-0.29c0.98-0.24,1.01-0.3,0.6-1.2c-0.17-0.36-0.36-0.72-0.51-1.09
		c-0.54-1.25-0.37-1.96,0.66-2.84c0.27-0.23,0.56-0.45,0.84-0.67c0.86-0.7,0.86-0.79,0.02-1.48c-0.4-0.33-0.81-0.64-1.18-0.99
		c-0.6-0.57-0.81-1.27-0.51-2.07c0.12-0.33,0.26-0.66,0.41-0.99c0.77-1.64,0.86-1.48-0.95-1.9c-1.91-0.45-2.33-0.94-2.34-2.88
		c-0.01-2.07,0.03-1.75-1.74-1.38c-1.88,0.39-2.47,0.13-3.31-1.58c-0.24-0.49-0.51-0.96-0.81-1.51c-0.44,0.32-0.79,0.56-1.12,0.82
		c-1.82,1.44-2.35,1.44-4.15,0.02C281.67-32.25,281.3-32.49,280.84-32.82z"/>
	<path d="M289.89-23.81c-0.17,0.27-0.27,0.5-0.44,0.66c-3.25,3.26-6.51,6.51-9.76,9.76c-0.34,0.34-0.73,0.49-1.11,0.12
		c-0.41-0.4-0.24-0.8,0.12-1.16c3.24-3.23,6.47-6.48,9.73-9.69c0.21-0.2,0.62-0.29,0.93-0.26C289.55-24.37,289.7-24.03,289.89-23.81
		z"/>
	<path d="M278-22.37c0.01-1.4,1.12-2.48,2.53-2.47c1.37,0.02,2.46,1.11,2.46,2.48c0,1.38-1.13,2.51-2.51,2.51
		C279.1-19.85,278-20.97,278-22.37z M280.51-23.42c-0.57-0.01-1.08,0.49-1.08,1.06c-0.01,0.58,0.47,1.06,1.06,1.07
		c0.6,0.01,1.06-0.44,1.07-1.04C281.55-22.92,281.09-23.41,280.51-23.42z"/>
	<path d="M287.63-12.71c-1.39-0.01-2.5-1.13-2.48-2.53c0.02-1.35,1.14-2.46,2.49-2.47c1.39-0.01,2.51,1.1,2.51,2.5
		C290.14-13.79,289.04-12.7,287.63-12.71z M287.67-14.13c0.57-0.01,1.06-0.52,1.06-1.08c-0.01-0.58-0.5-1.04-1.09-1.04
		c-0.6,0.01-1.05,0.47-1.04,1.07C286.61-14.59,287.09-14.12,287.67-14.13z"/>
</g>
<path d="M274.48-190.55c-3.13-1.06-5.06-3.57-5.26-6.8c-0.02-0.25,0.17-0.65,0.37-0.74c0.19-0.09,0.6,0.06,0.79,0.23
	c1.16,1.11,2.37,2.14,3.86,2.79c0.26,0.11,0.52,0.2,0.96,0.37c-0.18-0.28-0.24-0.41-0.33-0.52c-1.41-1.75-1.89-3.77-1.68-5.96
	c0.03-0.36,0.31-0.82,0.62-0.99c0.44-0.26,0.68,0.22,0.95,0.52c0.78,0.89,1.58,1.78,2.42,2.62c0.32,0.32,0.78,0.51,1.19,0.77
	c-0.07-1.34-0.22-2.59-0.18-3.84c0.03-0.79,0.32-1.57,0.58-2.33c0.09-0.25,0.49-0.57,0.7-0.54c0.26,0.04,0.59,0.36,0.7,0.64
	c0.84,2.17,2.06,4.07,3.87,5.58c0.23,0.19,0.48,0.37,0.76,0.59c0.08-0.84,0.09-1.62,0.24-2.37c0.5-2.47,2.06-3.91,4.52-4.35
	c2.34-0.42,4.25,0.34,5.58,2.32c0.46,0.68,0.8,1.46,1.09,2.23c0.18,0.49,0.43,0.68,0.93,0.66c0.4-0.02,0.83-0.04,1.21,0.05
	c0.34,0.09,0.8,0.27,0.91,0.53c0.1,0.24-0.14,0.7-0.35,0.95c-0.34,0.41-0.78,0.73-1.28,1.17c0.3,0.08,0.36,0.11,0.42,0.12
	c1.41,0.08,1.59,0.38,0.93,1.65c-2.05,3.97-4.85,7.24-8.97,9.19c-2.98,1.42-6.17,1.57-9.38,1.31c-3.94-0.32-7.67-1.43-11.18-3.26
	c-0.4-0.21-0.85-0.39-1.16-0.7c-0.25-0.25-0.49-0.69-0.44-1c0.07-0.49,0.57-0.42,0.99-0.42c1.61-0.03,3.22-0.09,4.83-0.16
	c0.19-0.01,0.37-0.09,0.55-0.15C274.31-190.4,274.36-190.46,274.48-190.55z M272.08-188.35c0.21,0.1,0.35,0.18,0.5,0.24
	c2.89,1.16,5.89,1.93,9,2.13c2.94,0.19,5.81-0.05,8.49-1.46c3.34-1.76,5.71-4.48,7.55-7.7c0.05-0.09,0.04-0.21,0.06-0.35
	c-0.48,0-0.92,0.06-1.34-0.02c-0.29-0.05-0.66-0.23-0.77-0.46c-0.09-0.18,0.07-0.6,0.25-0.79c0.46-0.46,0.99-0.86,1.49-1.28
	c-0.06-0.08-0.13-0.15-0.19-0.23c-0.16-0.03-0.32-0.09-0.48-0.07c-0.81,0.1-1.08-0.33-1.32-1.05c-0.3-0.89-0.71-1.78-1.26-2.54
	c-1.13-1.57-2.77-1.82-4.55-1.41c-1.64,0.37-2.66,1.43-2.9,3.06c-0.15,1.01,0.02,2.07,0.02,3.11c0,0.3-0.01,0.77-0.18,0.87
	c-0.24,0.14-0.69,0.11-0.97-0.03c-1.54-0.72-2.84-1.76-3.88-3.09c-0.66-0.84-1.23-1.74-1.96-2.77c0,0.5-0.05,0.88,0.01,1.24
	c0.15,0.99,0.31,1.97,0.53,2.94c0.22,0.97-0.08,1.36-1.06,1.26c-1.41-0.14-2.48-0.93-3.47-1.85c-0.29-0.27-0.54-0.57-0.93-0.98
	c0.04,0.37,0.04,0.53,0.07,0.69c0.36,1.74,1.25,3.11,2.73,4.11c0.26,0.17,0.46,0.61,0.46,0.92c0,0.18-0.44,0.4-0.72,0.53
	c-0.18,0.09-0.42,0.07-0.63,0.08c-1.54,0.06-2.88-0.54-4.16-1.31c-0.41-0.25-0.81-0.54-1.27-0.85c0.62,2.26,2.59,3.66,5.01,3.7
	c0.29,0,0.71,0.15,0.82,0.36c0.11,0.21,0.02,0.71-0.16,0.87c-0.58,0.51-1.18,1.06-1.88,1.35
	C274.1-188.74,273.12-188.61,272.08-188.35z"/>
<g>
	<path d="M234.24-205.07c0,3.39-0.07,6.78,0.02,10.16c0.09,3.27-2.41,5.68-5.63,5.65c-6.76-0.06-13.52-0.01-20.27-0.02
		c-3.35,0-5.56-2.2-5.56-5.55c-0.01-6.8-0.01-13.6,0-20.4c0-3.38,2.17-5.53,5.55-5.53c6.8,0,13.61,0,20.41,0
		c3.29,0,5.48,2.17,5.49,5.45C234.25-211.89,234.24-208.48,234.24-205.07z M218.55-220.39c-3.41,0-6.83-0.01-10.24,0
		c-3.12,0.01-5.15,2.05-5.15,5.18c-0.01,6.3-0.01,12.6,0,18.89c0,3.16,2.04,5.21,5.2,5.21c6.78,0.01,13.57,0.01,20.35,0
		c3.15,0,5.18-2.05,5.19-5.22c0.01-6.27,0-12.55,0-18.82c0-3.22-2.02-5.23-5.23-5.23C225.28-220.39,221.92-220.39,218.55-220.39z
		 M233.56-193.24c-0.12,0.16-0.25,0.31-0.37,0.47c-1.05,1.3-2.39,2.04-4.09,2.04c-7.06,0-14.11,0-21.17,0
		c-1.7,0-3.04-0.74-4.09-2.04c-0.12-0.15-0.24-0.31-0.49-0.61c0.08,0.32,0.11,0.45,0.15,0.57c0.68,1.86,2.47,3.12,4.51,3.12
		c7.01,0.01,14.02,0.01,21.03-0.01c0.45,0,0.92-0.07,1.35-0.2C232.07-190.41,233.13-191.54,233.56-193.24z"/>
	<path d="M216.05-195.72c-0.07-0.04-0.09-0.06-0.11-0.07c-1.45-0.18-1.46-0.18-1.47-1.65c-0.02-2.2-0.02-4.4-0.03-6.6
		c0-0.25,0-0.49,0-0.72c-0.66-0.21-0.66-0.21-0.91-1.35c-0.07-0.02-0.15-0.05-0.23-0.05c-1.21-0.05-1.21-0.05-1.31-1.23
		c-0.05-0.57-0.07-1.14-0.12-1.71c-0.05-0.5,0.21-0.71,0.67-0.76c0.61-0.07,1.22-0.14,1.89-0.22c0-0.8,0-1.59,0-2.38
		c0-2.46,1.56-4.41,3.96-4.8c1.79-0.29,3.51,0.03,5.1,0.95c0.43,0.25,0.76,0.53,0.51,1.06c0.06,0.06,0.08,0.1,0.12,0.12
		c1.63,0.87,1.31,0.64,0.95,2.18c-0.12,0.49-0.3,0.96-0.45,1.44c-0.13,0.42-0.37,0.5-0.78,0.32c-0.48-0.2-0.98-0.4-1.49-0.46
		c-0.95-0.11-1.46,0.3-1.75,1.34c0.4,0.05,0.8,0.1,1.2,0.14c1.02,0.1,1.02,0.09,1.09,1.15c0.01,0.11,0.03,0.22,0.04,0.32
		c1.27,0.39,1.29,0.39,1.3,1.74c0,2.26,0.14,1.83-1.9,2.01c-0.55,0.05-1.1,0.01-1.74,0.01c0.09,3.4,0.17,6.75,0.26,10.22
		c-0.78,0.07-1.5,0.14-2.21,0.19c-0.37,0.03-0.73,0.03-1.1,0.04C216.21-194.48,216.21-194.49,216.05-195.72z M222.53-209.76
		c-0.84-0.04-1.5-0.09-2.16-0.11c-1.69-0.03-1.7-0.04-1.5-1.74c0.13-1.14,0.86-1.81,1.99-1.7c0.64,0.06,1.27,0.32,2.02,0.52
		c0.23-0.79,0.45-1.62,0.72-2.44c0.13-0.39,0.01-0.58-0.31-0.77c-1.28-0.76-2.69-1.08-4.15-0.98c-2.17,0.14-3.73,1.33-4.18,3.26
		c-0.19,0.83-0.11,1.72-0.14,2.59c-0.02,0.45,0,0.9,0,1.38c-0.87,0.11-1.7,0.22-2.6,0.33c0.07,0.99,0.13,1.89,0.2,2.86
		c0.61,0,1.16,0.03,1.7-0.01c0.53-0.04,0.71,0.14,0.7,0.69c-0.04,2.06-0.02,4.12-0.03,6.18c0,1.14,0,2.28,0,3.46
		c0.42,0.04,0.69,0.09,0.96,0.08c0.78-0.02,1.55-0.08,2.33-0.1c1.26-0.04,1.07-0.07,1.04-1.13c-0.06-2.84-0.15-5.67-0.24-8.51
		c-0.02-0.52,0.1-0.74,0.68-0.71c0.77,0.03,1.55-0.09,2.33-0.08c0.49,0,0.65-0.22,0.65-0.65
		C222.53-208.11,222.53-208.88,222.53-209.76z"/>
</g>
<g>
	<rect x="-892.25" y="-673.21" width="302.95" height="285.43"/>
	<rect x="-921.89" y="-653.03" class="st0" width="313.02" height="245.11"/>
</g>
<g>
	<g>
		<g>
			<path d="M465.04-176.84c0.71-0.41,1.39-0.35,2.07-0.29c0.01,0,0.03,0,0.04,0.01c0.16,0.12,0.29,0.3,0.47,0.35
				c0.15,0.04,0.34-0.08,0.6-0.15c-0.11,0.17-0.19,0.27-0.22,0.38c-0.03,0.12-0.02,0.25-0.02,0.38c0.11-0.03,0.23-0.04,0.33-0.1
				c0.11-0.06,0.19-0.15,0.29-0.23c0.34,0.3,0.19,0.55-0.03,0.76c-0.5,0.49-0.34,1.05-0.23,1.75c0.29-0.26,0.5-0.45,0.72-0.64
				c0.03,0.02,0.07,0.04,0.1,0.06c-0.11,0.17-0.2,0.37-0.35,0.49c-0.52,0.44-0.58,1.01-0.54,1.62c0,0.04,0.02,0.07,0.03,0.11
				c0.01,0.02,0.03,0.04,0.08,0.1c0.23-0.17,0.45-0.33,0.74-0.54c-0.01,0.78-0.99,1-0.83,1.85c0.28-0.23,0.52-0.44,0.82-0.69
				c-0.09,0.64-0.85,0.82-0.78,1.48c0.24-0.2,0.47-0.4,0.71-0.6c0.03,0.02,0.05,0.03,0.08,0.05c-0.06,0.12-0.11,0.25-0.18,0.36
				c-0.09,0.12-0.24,0.22-0.29,0.35c-0.06,0.16-0.04,0.35-0.06,0.53c0.16-0.01,0.32-0.01,0.47-0.02c0.09-0.01,0.18-0.02,0.28-0.03
				c0,0.09,0,0.19,0,0.28c-0.01,0.13-0.04,0.25-0.06,0.38c0.14,0.01,0.28,0.03,0.43,0.03c0.14,0,0.28-0.04,0.41-0.01
				c0.39,0.1,0.7-0.02,0.89-0.34c0.16-0.27,0.35-0.6,0.35-0.9c0.01-1.94,0.06-3.88-0.07-5.81c-0.14-2.09-2.11-3.82-4.21-3.85
				c-0.68-0.01-1.29,0.14-1.9,0.57c-0.46,0.32-0.81,0.68-1.15,1.1c-0.11,0.14-0.35,0.19-0.54,0.23c-0.07,0.01-0.17-0.14-0.26-0.22
				c-0.01-0.01,0-0.05-0.01-0.07c-0.09-0.99-0.36-1.25-1.35-1.29c-0.25-0.01-0.51-0.01-0.76,0c-0.84,0.04-1.26,0.67-0.99,1.59
				c0.28-0.22,0.53-0.42,0.78-0.62c-0.13,0.63-1.05,0.87-0.75,1.71c0.24-0.18,0.47-0.36,0.74-0.56c0.16,0.42,0,0.7-0.25,0.89
				c-0.57,0.44-0.58,1.03-0.53,1.65c0.01,0.09,0.1,0.17,0.12,0.19c-0.06,0.51-0.11,1-0.17,1.49c0.03,0.01,0.07,0.03,0.1,0.04
				c0.24-0.19,0.48-0.38,0.72-0.56c0.03,0.03,0.07,0.05,0.1,0.08c-0.11,0.16-0.18,0.37-0.33,0.48c-0.69,0.53-0.65,1.27-0.62,2.01
				c0.01,0.26,0.16,0.27,0.32,0.12c0.17-0.17,0.31-0.36,0.51-0.52c0.16,0.52,0.11,0.96-0.21,1.37c-0.13,0.17-0.25,0.4-0.25,0.6
				c-0.01,0.37,0.37,0.56,0.74,0.4c0.36-0.15,0.61,0.01,0.62,0.4c0.74,0.04,1.22-0.32,1.38-1.07c0.06-0.29,0.09-0.6,0.09-0.9
				c0.01-1.28,0-2.56,0.01-3.84c0.01-0.94,0.53-1.57,1.26-2.07c-0.7,1.34-0.38,2.77-0.4,4.16c-0.01,0.58,0.02,1.17-0.02,1.74
				c-0.15,1.78-1.26,2.62-3.01,2.31c-1.31-0.23-1.93-0.9-1.93-2.22c0-1.13,0.13-2.25,0.13-3.38c0-1.34-0.09-2.68-0.14-4.02
				c-0.01-0.23,0.02-0.46,0.06-0.68c0.1-0.58,0.46-0.96,1.04-1c0.88-0.07,1.77-0.09,2.65-0.07c0.44,0.01,0.84,0.21,1.12,0.57
				c0.18,0.24,0.32,0.07,0.45-0.02c0.82-0.52,1.71-0.81,2.67-0.91c2.44-0.23,4.13,0.93,4.81,3.29c0.43,1.51,0.38,3.06,0.34,4.6
				c-0.01,0.49-0.06,0.99-0.04,1.48c0.06,1.26-0.9,2.49-2.67,2.39c-1.37-0.08-2.06-0.75-2.13-2.13c-0.06-1.1,0.01-2.2,0.01-3.3
				c0-0.49,0-0.99-0.07-1.48c-0.16-1.03-1.01-1.7-2.06-1.67C465.26-176.86,465.2-176.85,465.04-176.84z"/>
		</g>
		<g>
			<path d="M453.03-173.94c0-0.92-0.04-1.85,0.01-2.77c0.03-0.55,0.12-1.12,0.31-1.62c0.38-1.01,1.35-1.5,2.53-1.39
				c1.03,0.1,1.72,0.71,1.94,1.78c0.1,0.5,0.15,1.03,0.15,1.54c0,1.71-0.01,3.42-0.06,5.13c-0.02,0.53-0.12,1.08-0.28,1.59
				c-0.24,0.73-0.8,1.15-1.55,1.3c-0.17,0.04-0.35,0.06-0.53,0.08c-1.41,0.1-2.26-0.52-2.41-1.93c-0.11-1.08-0.05-2.17-0.06-3.26
				c0-0.15,0.01-0.3,0.02-0.46C453.08-173.94,453.06-173.94,453.03-173.94z M454.75-170.07c0.02,0.02,0.05,0.04,0.07,0.06
				c-0.08,0.11-0.19,0.21-0.22,0.33c-0.03,0.15-0.06,0.39,0.02,0.48c0.27,0.29,0.58,0.58,1.05,0.44c0.09-0.03,0.2-0.01,0.3,0.01
				c0.57,0.11,0.81-0.03,0.95-0.61c0.08-0.36,0.14-0.72,0.15-1.09c0.02-1.37,0-2.73,0-4.1c0-0.91,0.03-1.82,0-2.73
				c-0.04-1.23-0.58-1.88-1.59-2.09c-0.91-0.19-1.59,0.77-1.48,1.73c0.26-0.22,0.5-0.43,0.77-0.67c0.09,0.5,0,0.88-0.33,1.2
				c-0.15,0.15-0.33,0.29-0.43,0.48c-0.12,0.21-0.17,0.45-0.25,0.68c0.05,0.02,0.09,0.05,0.14,0.07c0.27-0.23,0.54-0.46,0.81-0.68
				c0.05,0.04,0.1,0.08,0.15,0.12c-0.13,0.23-0.25,0.47-0.4,0.68c-0.16,0.22-0.38,0.41-0.54,0.63c-0.06,0.08-0.04,0.23-0.04,0.35
				c0,0.09,0.06,0.18,0.06,0.28c0,0.26-0.02,0.51-0.03,0.77c0.04,0.01,0.09,0.02,0.13,0.03c0.22-0.17,0.45-0.35,0.73-0.57
				c0.04,0.51-0.21,0.75-0.46,1c-0.42,0.44-0.57,1.65-0.27,2.23c0.22-0.16,0.43-0.31,0.67-0.48c0.16,0.35-0.02,0.56-0.18,0.76
				c-0.11,0.14-0.28,0.24-0.36,0.39c-0.07,0.14-0.06,0.32-0.09,0.49c0.16-0.02,0.32-0.03,0.47-0.06
				C454.63-169.97,454.69-170.03,454.75-170.07z"/>
		</g>
		<g>
			<path d="M455.16-180.87c-0.44-0.1-0.75-0.12-1.03-0.24c-0.72-0.29-1.19-0.82-1.29-1.6c-0.1-0.74,0.24-1.34,0.83-1.76
				c0.75-0.54,1.61-0.74,2.52-0.56c0.84,0.16,1.53,0.86,1.65,1.6c0.12,0.79-0.28,1.65-1.08,2.05
				C456.24-181.13,455.63-181.02,455.16-180.87z M455.02-181.37c1.24,0.25,2.04-0.46,1.93-1.67c-0.05-0.58-0.33-1.04-0.78-1.42
				c-0.45-0.38-0.96-0.22-1.41-0.16c-0.31,0.04-0.66,0.4-0.82,0.71c-0.17,0.33-0.15,0.77-0.19,1.16c0,0.01,0.24,0.08,0.35,0.05
				c0.15-0.05,0.27-0.18,0.4-0.28c0.04,0.03,0.08,0.06,0.12,0.08c-0.06,0.18-0.11,0.36-0.17,0.54c-0.07,0.2-0.26,0.49-0.19,0.58
				c0.18,0.25,0.42,0.03,0.63-0.08c0.06-0.03,0.18-0.04,0.22,0c0.05,0.04,0.06,0.15,0.05,0.23
				C455.15-181.55,455.08-181.48,455.02-181.37z"/>
		</g>
	</g>
	<g>
		<g>
			<g>
				<path d="M478.31-161.82h-31.5v-2.76h28.8v-24.2h-28.8v-2.76h31.5V-161.82z M447.52-162.53h30.08v-28.3h-30.08v1.34h28.8v25.62
					h-28.8V-162.53z"/>
			</g>
			<g>
				<rect x="446.81" y="-189.13" width="0.71" height="24.91"/>
			</g>
		</g>
		<g>
			<rect x="447.17" y="-164.22" width="29.82" height="2.05"/>
		</g>
		<g>
			<rect x="475.61" y="-190.97" width="2.12" height="28.8"/>
		</g>
	</g>
</g>
<g>
	<path d="M141.2-222.16c0.57-2.5,2.38-4.17,4.96-4.57c0.34-0.05,0.55-0.15,0.37-0.54c-2.25-0.33-4.63,1.01-5.63,3.16
		c-0.91,1.95-0.57,4.67,0.8,5.87c-0.09-0.23-0.15-0.39-0.21-0.54C141.07-219.88,140.94-221.01,141.2-222.16z"/>
	<path d="M147.47-218.64c1.14-0.26,1.83-1.17,1.83-2.42c0.01-3.9,0.01-7.79-0.01-11.69c0-0.51,0.15-0.66,0.64-0.62
		c0.54,0.04,1.09,0.01,1.68,0.01c-0.04-0.23-0.07-0.39-0.09-0.52c-0.99,0-1.92,0-2.91,0c0,0.24,0,0.44,0,0.64
		c0,3.74,0.02,7.48-0.02,11.22c-0.01,0.57-0.16,1.21-0.44,1.7c-0.55,0.98-1.52,1.27-2.61,1.25
		C146.12-218.57,146.78-218.47,147.47-218.64z"/>
	<path d="M143.8-222.74c-0.44,0.94-0.23,2.01,0.65,2.81c-0.34-1.08-0.21-1.98,0.46-2.76c0.68-0.79,1.58-1.02,2.59-0.89
		c0-0.99,0-1.94,0-2.93c-0.22,0-0.42,0-0.69,0c0,0.83,0,1.64,0,2.45C145.24-224.25,144.31-223.82,143.8-222.74z"/>
	<path d="M155.84-229.46c-0.32-0.31-0.81-0.17-1.18-0.34c-0.02,0.04-0.03,0.08-0.05,0.12c0.37,0.15,0.74,0.31,1.11,0.46
		C155.75-229.29,155.79-229.38,155.84-229.46z"/>
	<path d="M152.92-231.16c-0.16-0.64-0.32-1.27-0.49-1.92c-0.14,0-0.29,0-0.61,0c0.36,0.72,0.68,1.35,0.99,1.98
		C152.85-231.12,152.89-231.14,152.92-231.16z"/>
	<path d="M132.83-239.46v29.67h31.5v-29.67H132.83z M157.02-225.67c-1.54-0.08-2.93-0.41-4.28-1.28c0,0.27,0,0.45,0,0.63
		c0,1.92,0.07,3.85-0.03,5.76c-0.13,2.37-1.39,4.06-3.58,4.97c-2.15,0.9-4.17,0.52-5.98-0.92c-1.05-0.84-2.04-1.71-2.57-3.01
		c-1.65-4.03,1.57-8.42,5.89-8.04c0.54,0.05,0.27,0.44,0.41,0.71c0.89,0.12,0.89,0.12,0.89,1.05c0,0.82,0,1.64,0,2.51
		c-0.32-0.02-0.59-0.05-0.86-0.05c-1.58-0.01-2.72,1.46-2.32,2.99c0.2,0.76,0.65,1.07,1.48,1.02c1.33-0.08,2.3-1.09,2.3-2.43
		c0.01-3.91,0.01-7.82-0.01-11.74c0-0.54,0.16-0.66,0.67-0.64c0.91,0.04,1.81,0.01,2.78,0.01c-0.14,0.76,0.29,0.86,0.88,0.77
		c0.07,0.42,0.12,0.81,0.21,1.18c0.38,1.58,0.92,2.08,2.55,2.28c0.46,0.06,0.75,0.18,0.65,0.69c0.04,0.03,0.06,0.04,0.07,0.05
		c0.26,0.06,0.68,0.04,0.75,0.19c0.14,0.28,0.09,0.66,0.09,1C157.02-227.23,157.02-226.48,157.02-225.67z"/>
	<path d="M151.8-227.66c0,0.22,0,0.4,0,0.58c0,1.78,0.02,3.57,0,5.35c-0.04,2.4-1.15,4.14-3.28,5.24c-1.32,0.68-2.72,0.74-4.18,0.46
		c0.05,0.04,0.1,0.08,0.16,0.11c3.55,1.78,7.95-0.89,7.99-4.86c0.02-2.01-0.01-4.01,0.02-6.02
		C152.51-227.3,152.3-227.51,151.8-227.66z"/>
	<path d="M156.09-228.81c0,0.64-0.02,1.29,0.01,1.94c0.01,0.35-0.12,0.46-0.45,0.4c-0.7-0.13-1.41-0.24-2.22-0.38
		c1.07,0.59,2.13,0.82,3.34,0.9c0-0.83,0-1.6,0-2.36C156.76-228.87,156.73-228.88,156.09-228.81z"/>
</g>
<g>
	<path d="M15.23,0.54c2.98,0,5.52-0.04,8.06,0.01c2.15,0.04,4.1,0.75,5.79,2.1c1.62,1.3,2.41,3.03,2.58,5.06
		c0.07,0.86,0.1,1.74,0.06,2.61c-0.18,4.67-0.33,9.35-0.6,14.02c-0.2,3.48-1.89,5.43-5.28,6.24c-3.48,0.83-7.03,0.93-10.59,0.89
		c-3.16-0.03-6.3-0.3-9.39-0.96c-3.36-0.72-4.78-2.14-5.18-5.53C-0.04,18.73,0.11,12.5,1.33,6.31C1.45,5.69,1.65,5.08,1.89,4.5
		c0.87-2.13,2.49-3.36,4.77-3.53C9.66,0.74,12.67,0.66,15.23,0.54z M1.29,9.75c0.1,0.05,0.14,0.09,0.18,0.09
		c2.16,0.04,4.33,0.09,6.49,0.1c0.19,0,0.43-0.16,0.57-0.32c4.3-4.67,10.92-4.62,15.14,0.11c0.19,0.21,0.54,0.38,0.82,0.39
		c2.02,0.06,4.05,0.08,6.07,0.11c0.22,0,0.45,0,0.7,0c0-0.59,0.01-1.05,0-1.52c-0.1-3.82-2.02-6.37-5.74-7.29
		c-1.46-0.36-3.03-0.44-4.54-0.42c-4.61,0.07-9.22,0.22-13.82,0.4C5.27,1.48,3.68,2.22,2.71,3.95C1.69,5.76,1.52,7.77,1.29,9.75z
		 M1.05,24.15c0.15,0.78,0.25,1.42,0.4,2.06c0.38,1.6,1.34,2.72,2.89,3.31c0.52,0.2,1.06,0.39,1.61,0.5
		c5.8,1.1,11.63,1.24,17.48,0.5c1.5-0.19,2.98-0.44,4.33-1.18c1.87-1.03,2.65-2.7,2.84-4.74c-0.1-0.03-0.17-0.07-0.24-0.07
		c-2.8-0.05-5.6-0.09-8.4-0.12c-0.22,0-0.45,0.1-0.65,0.21c-3.44,1.93-6.86,1.8-10.28-0.07c-0.31-0.17-0.7-0.28-1.05-0.29
		c-2.63-0.06-5.27-0.08-7.9-0.11C1.78,24.15,1.48,24.15,1.05,24.15z M16.02,23.88c0.05,0.04,0.09,0.09,0.14,0.13
		c-0.25,0.29-0.51,0.58-0.77,0.88c0.15,0.21,0.27,0.38,0.46,0.65c0.29-0.38,0.54-0.71,0.77-1.01c0.45-0.36,0.9-0.72,1.27-1.02
		c0.06,0.27,0.13,0.54,0.19,0.81c0.14,0.06,0.28,0.13,0.42,0.19c0.48-0.61,0.97-1.23,1.45-1.84c0.04,0.04,0.08,0.08,0.13,0.12
		c-0.18,0.23-0.35,0.45-0.56,0.72c0.2,0.18,0.38,0.34,0.5,0.45c0.33-0.28,0.61-0.51,0.88-0.74c-0.21-0.26-0.36-0.46-0.52-0.66
		c0.04-0.03,0.07-0.06,0.11-0.09c0.21,0.17,0.42,0.34,0.63,0.51c0.23-0.17,0.43-0.32,0.64-0.47c0.03,0.03,0.05,0.06,0.08,0.09
		c-0.15,0.2-0.3,0.39-0.53,0.7c0.13,0.13,0.27,0.27,0.45,0.43c0.35-0.31,0.61-0.54,0.88-0.77c-0.36-0.38-0.68-0.72-1-1.07
		c0.05-0.04,0.1-0.09,0.15-0.13c0.34,0.32,0.67,0.63,1.1,1.05c0.13-0.19,0.26-0.33,0.34-0.5c0.09-0.18,0.13-0.39,0.2-0.58
		c-0.19,0.06-0.38,0.12-0.56,0.2c-0.11,0.05-0.21,0.14-0.31,0.21c0.25-0.6,0.55-1.14,1.16-1.4c-0.19-0.26-0.31-0.44-0.44-0.61
		c0.03-0.03,0.05-0.06,0.08-0.08c0.2,0.13,0.39,0.27,0.62,0.42c0.22-0.25,0.4-0.47,0.6-0.7c-0.23-0.13-0.37-0.21-0.52-0.29
		c0.11-0.15,0.22-0.3,0.35-0.44c0.21-0.21,0.43-0.41,0.74-0.71c-0.37-0.23-0.67-0.42-1.12-0.69c0.41-0.3,0.81-0.59,1.22-0.88
		c-0.21-0.29-0.33-0.45-0.45-0.63c0.14-0.17,0.35-0.31,0.4-0.49c0.04-0.15-0.09-0.35-0.15-0.55c0.18,0.03,0.3,0.05,0.49,0.09
		c-0.33-2.72-1.65-4.8-3.68-6.5C16.97,4.61,8.3,7.16,7.37,13.48c-0.1,0.67-0.25,1.34-0.32,2.01c-0.4,4.17,1.99,7.99,5.86,9.39
		c0.11,0.04,0.22,0.06,0.37,0.09c0-0.16,0-0.28,0-0.27c0.29-0.1,0.51-0.14,0.68-0.25c0.19-0.12,0.35-0.3,0.51-0.46
		c0.04,0.04,0.07,0.08,0.11,0.13c-0.23,0.28-0.46,0.56-0.83,1c0.4,0.04,0.68,0.14,0.88,0.05c0.15-0.07,0.18-0.38,0.26-0.55
		c0.19-0.08,0.41-0.14,0.59-0.26C15.68,24.24,15.84,24.05,16.02,23.88z M1.19,10.48c-0.51,4.38-0.58,8.75-0.14,13.21
		c2.93,0,5.78,0,8.69,0c-3.93-3.91-3.87-8.39-1.89-13.21C5.62,10.48,3.44,10.48,1.19,10.48z M24.45,10.75
		c1.31,2.15,1.89,4.41,1.47,6.89c-0.42,2.45-1.61,4.46-3.56,6.28c2.9,0,5.59,0,8.34,0c0.19-4.37,0.37-8.73,0.56-13.16
		C28.97,10.75,26.75,10.75,24.45,10.75z M19.38,23.75c-0.38,0.3-0.68,0.54-0.98,0.78c0.72,0.82,0.72,0.82,1.43-0.37
		C19.66,24.01,19.49,23.86,19.38,23.75z M18.5,25.18c-0.22-0.8-0.59,0.03-0.89-0.05c0.36-0.63,0.36-0.63-0.11-0.97
		c-0.16,0.18-0.33,0.36-0.45,0.5C17.38,25.42,17.88,25.51,18.5,25.18z M21.68,23.81c-0.35-0.16-0.59-0.34-0.65-0.29
		c-0.27,0.21-0.49,0.49-0.73,0.75c0.06,0.07,0.12,0.13,0.19,0.2C20.81,24.29,21.14,24.1,21.68,23.81z M25.33,18.19
		c0.07-0.52,0.11-0.88,0.17-1.33c-0.33,0.3-0.55,0.5-0.81,0.74C24.87,17.76,25.04,17.92,25.33,18.19z"/>
	<path d="M25.11,7.36c-1.13,0-2.02-0.89-2-2.01c0.01-1.06,0.93-1.96,2-1.96c1.1,0,1.99,0.86,1.99,1.95
		C27.1,6.49,26.25,7.36,25.11,7.36z M26.34,4.58c-0.36-0.54-0.94-0.81-1.6-0.62c-0.62,0.17-1.03,0.58-1.09,1.24
		c-0.05,0.61,0.12,1.14,0.84,1.5c-0.05-0.27-0.08-0.42-0.12-0.62c0.73,0.39,0.82-0.47,1.3-0.55c0.25,0.13,0.51,0.28,0.78,0.42
		c0.05-0.06,0.11-0.12,0.16-0.18c-0.19-0.18-0.38-0.37-0.65-0.63C26.01,5.05,26.14,4.86,26.34,4.58z"/>
	<path d="M9.6,16.01c0.17-4.65,3.09-6.69,6.85-6.67c3.62,0.02,6.63,3.3,6.52,6.95c-0.11,3.73-3.21,6.72-6.86,6.62
		C12.34,22.8,9.49,19.78,9.6,16.01z M10.84,19.15c1.11,2.57,4.7,3.94,7.6,2.85c3.07-1.15,4.74-4.62,3.73-7.79
		c-0.55-1.74-2.79-4.11-3.68-3.88c0.05,0.14,0.1,0.27,0.16,0.4c-0.04,0.04-0.08,0.07-0.12,0.11c-0.28-0.22-0.56-0.44-0.87-0.69
		c-0.1,0.05-0.27,0.15-0.41,0.23c-0.23-0.21-0.41-0.37-0.61-0.55c-0.24,0.22-0.44,0.41-0.64,0.59c-0.19-0.21-0.36-0.39-0.49-0.54
		c-0.5,0.04-0.66,1.28-1.32,0.19c-0.16,0.38-0.28,0.66-0.46,1.1c1.32-0.51,2.3-0.39,3.05,0.67c0.2,0.28,0.5,0.53,0.82,0.67
		c1.36,0.6,2.19,1.6,2.4,3.07c0.2,1.41-0.26,2.6-1.37,3.5c-1.24,1.01-3.03,1.1-4.36,0.26c-1.43-0.9-2.05-2.5-1.6-4.31
		c0.18-0.72,0.41-1.4,0.33-2.18c-0.04-0.45,0.33-0.94,0.52-1.41c0.04-0.1,0.1-0.2,0.15-0.3c-0.04-0.03-0.08-0.07-0.13-0.1
		c-0.35,0.32-0.7,0.65-1.1,1.01c-0.03-0.28-0.05-0.46-0.08-0.78c-0.28,0.31-0.44,0.5-0.64,0.72c0.21,0.15,0.37,0.24,0.49,0.37
		c0.09,0.1,0.21,0.34,0.18,0.37c-0.35,0.34-0.7,0.68-1.1,0.95c-0.42,0.29-0.5,0.47-0.2,0.76c0.17-0.12,0.35-0.24,0.52-0.36
		c0.05,0.06,0.1,0.12,0.16,0.18c-0.36,0.32-0.72,0.64-1.06,0.98c-0.07,0.07-0.06,0.23-0.09,0.35c0.12,0,0.24,0.01,0.36,0
		c0.09-0.01,0.17-0.04,0.26-0.06c0.02,0.03,0.04,0.07,0.06,0.1c-0.33,0.35-0.66,0.69-1.02,1.07c0.16,0.18,0.29,0.34,0.41,0.48
		c0.26-0.13,0.43-0.23,0.61-0.32c0.03,0.04,0.06,0.08,0.09,0.13c-0.3,0.33-0.6,0.66-1.05,1.16c0.43,0.07,0.74,0.12,1.09,0.18
		C11.28,18.54,11.09,18.81,10.84,19.15z M17.19,12.96c-0.57,2.16-1.7,2.6-3.8,1.52c-0.88,1.98-0.17,3.96,1.68,4.69
		c1.73,0.68,3.64-0.16,4.26-1.88C19.99,15.43,19.06,13.52,17.19,12.96z M15.05,11.38c-0.96-0.01-1.59,0.61-1.59,1.58
		c0,0.93,0.68,1.66,1.56,1.65c0.84-0.01,1.55-0.71,1.58-1.58C16.63,12.13,15.95,11.39,15.05,11.38z M11.54,13.29
		c0.09-0.37,0.16-0.65,0.23-0.92c-0.23,0-0.53-0.08-0.66,0.03C10.73,12.73,11.03,12.95,11.54,13.29z"/>
	<path d="M14.52,8.05c-4.17,0.9-6.23,3.46-6.23,7.71c-0.51-0.78-0.11-2.99,0.87-4.52C10.41,9.28,12.2,8.19,14.52,8.05z"/>
</g>
</svg>
