<?xml version="1.0" encoding="utf-8"?>
<!-- Generator: Adobe Illustrator 24.3.0, SVG Export Plug-In . SVG Version: 6.00 Build 0)  -->
<svg version="1.1" id="Layer_1" xmlns="http://www.w3.org/2000/svg" xmlns:xlink="http://www.w3.org/1999/xlink" x="0px" y="0px"
	 viewBox="0 0 32 32" style="enable-background:new 0 0 32 32;" xml:space="preserve">
<path d="M359.32-192.71c-1.37,0.01-2.74,0.01-4.11,0.01c-2.12,0.01-3.18,1-3.18,3.02c0,6.04,0,12.09,0,18.13
	c0,2.01,1.07,3.02,3.18,3.02c7.18,0,14.36,0,21.55,0c2.32,0,3.34-0.96,3.34-3.14c0-5.95,0-11.91,0-17.86c0-0.25,0-0.5-0.02-0.75
	c-0.11-1.35-1.21-2.37-2.64-2.41c-1.27-0.03-2.55-0.01-3.82-0.01c-0.25,0-0.51,0-0.83,0c0.01-0.24,0.02-0.47,0.02-0.7
	c-0.01-1.67-0.46-3.16-1.61-4.42c-1.31-1.44-2.99-2.18-5-2.2c-1.65-0.01-3.11,0.5-4.36,1.53c-1.65,1.37-2.3,3.12-2.29,5.09
	c0,0.2,0,0.41,0.02,0.61C359.41-192.74,359.37-192.71,359.32-192.71z M372.77-187.6c0.02,3.28-2.47,5.81-5.98,6.11
	c-3.47,0.29-6.53-1.82-7.13-4.96c-0.13-0.66-0.08-1.36-0.07-2.04c0.01-0.45,0.31-0.73,0.78-0.73c0.51,0,0.79,0.28,0.81,0.77
	c0.01,0.32,0,0.64,0.01,0.95c0.03,2.58,2.18,4.51,5.01,4.5c2.81-0.01,4.92-1.92,4.94-4.47c0-0.34-0.1-0.73,0.04-1.01
	c0.14-0.3,0.48-0.63,0.8-0.7c0.45-0.1,0.74,0.26,0.79,0.7C372.8-188.19,372.77-187.9,372.77-187.6z M363.32-197.67
	c1.71-1.12,3.57-1.2,5.36-0.21c1.83,1.01,2.51,2.58,2.45,4.48c-0.01,0.21-0.02,0.43-0.04,0.65c-3.27,0-6.54,0-9.85,0
	c-0.02-0.22-0.04-0.44-0.04-0.65C361.15-195.13,361.72-196.61,363.32-197.67z"/>
<g>
	<path d="M395.87-82.55c-0.47,0-0.94,0.01-1.41,0c-1.11-0.02-1.88-0.72-2.03-1.83c-0.08-0.65-0.14-1.3-0.27-1.95
		c-0.04-0.2-0.25-0.41-0.43-0.54c-1.01-0.75-1.89-0.5-2.69,0.38c-0.19,0.21-0.44,0.36-0.68,0.53c-0.86,0.61-1.82,0.56-2.58-0.17
		c-0.71-0.68-1.41-1.37-2.09-2.09c-0.72-0.76-0.78-1.72-0.15-2.57c0.41-0.56,0.87-1.09,1.26-1.66c0.11-0.16,0.1-0.42,0.09-0.64
		c-0.01-0.13-0.15-0.25-0.17-0.39c-0.15-1.02-0.86-1.2-1.74-1.26c-2.17-0.13-3.01-0.65-2.87-3.13c0.03-0.59,0-1.19,0.01-1.78
		c0.01-1.18,0.72-1.94,1.91-2.08c0.63-0.07,1.26-0.13,1.88-0.26c0.19-0.04,0.39-0.22,0.51-0.39c0.69-1.02,0.58-1.93-0.37-2.75
		c-0.24-0.21-0.42-0.5-0.6-0.78c-0.51-0.78-0.46-1.71,0.17-2.38c0.71-0.76,1.45-1.5,2.21-2.22c0.73-0.68,1.69-0.71,2.53-0.1
		c0.56,0.41,1.09,0.87,1.66,1.26c0.16,0.11,0.43,0.12,0.64,0.08c1.16-0.24,1.78-0.91,1.66-2.16c-0.03-0.28,0.06-0.57,0.1-0.85
		c0.16-1.04,0.93-1.73,1.97-1.75c0.96-0.02,1.93-0.02,2.89,0c1.08,0.02,1.85,0.71,2,1.79c0.09,0.65,0.19,1.3,0.24,1.95
		c0.03,0.35,0.21,0.44,0.48,0.6c1.02,0.64,1.87,0.5,2.65-0.39c0.2-0.23,0.47-0.39,0.72-0.57c0.83-0.58,1.79-0.54,2.53,0.16
		c0.73,0.69,1.44,1.4,2.13,2.13c0.7,0.74,0.75,1.69,0.16,2.53c-0.41,0.57-0.87,1.09-1.26,1.66c-0.12,0.17-0.08,0.46-0.11,0.69
		c0,0.02,0.02,0.04,0.03,0.05c0.24,1.18,0.96,1.68,2.15,1.59c0.26-0.02,0.53,0.06,0.79,0.1c1.08,0.15,1.77,0.92,1.79,2
		c0.02,0.94,0.01,1.88,0,2.83c-0.01,1.12-0.7,1.89-1.81,2.04c-0.57,0.08-1.14,0.2-1.7,0.21c-0.56,0.01-0.69,0.33-0.94,0.74
		c-0.53,0.9-0.34,1.57,0.36,2.23c0.29,0.28,0.52,0.63,0.75,0.97c0.53,0.79,0.48,1.73-0.18,2.43c-0.7,0.75-1.43,1.47-2.17,2.17
		c-0.74,0.69-1.7,0.74-2.53,0.13c-0.56-0.41-1.09-0.87-1.66-1.26c-0.17-0.12-0.47-0.12-0.69-0.08c-1.21,0.22-1.72,0.96-1.63,2.18
		c0.02,0.26-0.06,0.53-0.1,0.79c-0.16,1.07-0.93,1.75-2.01,1.78C396.81-82.55,396.34-82.55,395.87-82.55z M407.35-107
		c-0.12-0.19-0.21-0.38-0.34-0.52c-0.61-0.63-1.25-1.24-1.86-1.87c-0.37-0.38-0.72-0.39-1.13-0.06c-0.67,0.54-1.36,1.05-2.03,1.59
		c-0.31,0.25-0.6,0.25-0.96,0.09c-0.67-0.31-1.35-0.59-2.04-0.84c-0.42-0.15-0.63-0.39-0.67-0.84c-0.09-0.85-0.22-1.7-0.33-2.56
		c-0.06-0.47-0.32-0.67-0.79-0.67c-0.9,0.01-1.8,0-2.7,0c-0.44,0-0.69,0.2-0.74,0.64c-0.11,0.85-0.25,1.7-0.33,2.56
		c-0.05,0.48-0.28,0.72-0.71,0.88c-0.67,0.24-1.33,0.51-1.98,0.82c-0.38,0.18-0.69,0.16-1.02-0.1c-0.67-0.54-1.36-1.05-2.03-1.59
		c-0.39-0.31-0.73-0.29-1.08,0.07c-0.6,0.62-1.2,1.23-1.83,1.82c-0.41,0.39-0.42,0.75-0.07,1.18c0.53,0.65,1.03,1.33,1.55,1.98
		c0.26,0.33,0.27,0.63,0.09,1.02c-0.31,0.66-0.58,1.35-0.84,2.04c-0.15,0.39-0.38,0.6-0.8,0.64c-0.85,0.09-1.7,0.23-2.56,0.33
		c-0.5,0.06-0.71,0.33-0.7,0.82c0.01,0.88,0.01,1.76,0,2.64c0,0.47,0.2,0.72,0.68,0.78c0.85,0.1,1.7,0.24,2.56,0.33
		c0.45,0.05,0.69,0.27,0.84,0.68c0.25,0.67,0.51,1.34,0.82,1.98c0.2,0.41,0.18,0.72-0.1,1.07c-0.54,0.67-1.06,1.36-1.59,2.03
		c-0.29,0.37-0.27,0.7,0.06,1.03c0.63,0.62,1.26,1.24,1.87,1.87c0.37,0.38,0.72,0.39,1.13,0.06c0.65-0.53,1.33-1.02,1.98-1.55
		c0.35-0.28,0.66-0.29,1.07-0.09c0.64,0.31,1.31,0.57,1.98,0.82c0.41,0.15,0.63,0.39,0.67,0.84c0.09,0.85,0.22,1.7,0.33,2.56
		c0.06,0.47,0.32,0.67,0.79,0.67c0.9-0.01,1.8,0,2.7,0c0.44,0,0.69-0.2,0.74-0.65c0.11-0.85,0.25-1.7,0.33-2.56
		c0.05-0.48,0.28-0.72,0.71-0.88c0.65-0.23,1.3-0.49,1.92-0.79c0.4-0.19,0.71-0.22,1.07,0.07c0.67,0.54,1.36,1.05,2.03,1.59
		c0.39,0.31,0.73,0.29,1.08-0.07c0.6-0.62,1.2-1.23,1.83-1.82c0.41-0.39,0.41-0.75,0.06-1.18c-0.53-0.65-1.03-1.33-1.55-1.98
		c-0.27-0.33-0.27-0.63-0.09-1.01c0.31-0.66,0.58-1.35,0.84-2.04c0.15-0.39,0.38-0.59,0.8-0.64c0.85-0.09,1.7-0.23,2.56-0.33
		c0.5-0.06,0.71-0.33,0.7-0.82c-0.01-0.88-0.01-1.76,0-2.64c0-0.47-0.21-0.72-0.68-0.78c-0.83-0.1-1.66-0.25-2.5-0.32
		c-0.51-0.04-0.76-0.28-0.92-0.75c-0.22-0.64-0.47-1.27-0.77-1.87c-0.21-0.42-0.23-0.75,0.08-1.12c0.52-0.63,1.02-1.29,1.51-1.94
		C407.13-106.57,407.22-106.78,407.35-107z"/>
	<path d="M402.41-98.3c0,3.64-2.91,6.56-6.55,6.55c-3.64,0-6.55-2.93-6.54-6.57c0.01-3.61,2.91-6.51,6.52-6.52
		C399.48-104.84,402.4-101.94,402.41-98.3z M395.83-103.54c-2.88,0.02-5.23,2.39-5.22,5.26c0.01,2.87,2.38,5.23,5.25,5.24
		c2.89,0,5.29-2.42,5.25-5.29C401.07-101.21,398.7-103.56,395.83-103.54z"/>
</g>
<g>
	<path d="M366.16-12.76c-4.33,0-8.67,0-13,0c-1.79,0-2.73-0.95-2.73-2.75c0-4.7,0-9.4,0-14.1c0-1.78,0.96-2.72,2.76-2.74
		c0.4-0.01,0.82-0.05,1.21-0.16c6.58-1.76,13.15-3.53,19.72-5.3c1.68-0.45,2.61,0.08,3.07,1.76c0.28,1.01,0.55,2.02,0.79,3.04
		c0.11,0.49,0.32,0.77,0.87,0.67c0.18-0.03,0.36-0.01,0.55,0c1.52,0.03,2.53,1.03,2.53,2.55c0.01,4.84,0.01,9.67,0,14.51
		c0,1.51-1.02,2.52-2.55,2.52C374.97-12.75,370.56-12.76,366.16-12.76z M351.96-23.29c-0.01,0.24-0.03,0.42-0.03,0.59
		c0,2.42,0,4.84,0,7.25c0,0.91,0.27,1.19,1.18,1.19c8.71,0,17.43,0,26.14,0c0.9,0,1.17-0.28,1.17-1.19c0-2.42,0-4.84,0-7.25
		c0-0.19-0.03-0.39-0.05-0.59C370.88-23.29,361.46-23.29,351.96-23.29z M351.96-24.85c9.51,0,18.96,0,28.4,0c0-0.89,0-1.72,0-2.53
		c-9.5,0-18.93,0-28.4,0C351.96-26.53,351.96-25.71,351.96-24.85z M380.39-28.95c0.1-1.75-0.03-1.89-1.69-1.89
		c-8.42,0-16.83,0-25.25,0c-0.23,0-0.46-0.02-0.68,0.01c-0.49,0.06-0.8,0.33-0.83,0.84c-0.02,0.33,0,0.67,0,1.04
		C361.44-28.95,370.9-28.95,380.39-28.95z M376.65-32.36c-0.31-1.14-0.59-2.19-0.88-3.24c-0.25-0.9-0.4-0.99-1.3-0.75
		c-3.56,0.96-7.11,1.91-10.67,2.87c-1.28,0.34-2.56,0.68-3.84,1.02c0.01,0.03,0.02,0.07,0.03,0.1
		C365.5-32.36,371.01-32.36,376.65-32.36z"/>
</g>
<g>
	<path d="M0.26,15.96c0-3.5-0.01-7.01,0-10.51C0.27,2.7,1.9,0.74,4.49,0.31c0.3-0.05,0.61-0.05,0.92-0.05c3.95,0,7.91-0.01,11.86,0
		c3.08,0,5.17,2.09,5.18,5.16c0,0.72,0.01,1.43,0,2.15c-0.02,0.75-0.52,1.28-1.2,1.29c-0.71,0.01-1.23-0.52-1.25-1.3
		c-0.02-0.76,0.01-1.52-0.01-2.27c-0.03-1.52-1.04-2.55-2.56-2.56c-4.06-0.01-8.11-0.01-12.17,0c-1.45,0-2.42,0.95-2.53,2.39
		C2.73,5.3,2.73,5.49,2.73,5.67c0,6.88-0.01,13.77,0.02,20.65c0,0.64,0.18,1.35,0.48,1.91c0.39,0.72,1.15,1.03,1.98,1.03
		c4.1,0.01,8.2,0.01,12.29,0c1.45-0.01,2.46-1.05,2.49-2.49c0.02-0.76,0-1.52,0.01-2.27c0.01-0.83,0.52-1.38,1.25-1.37
		c0.71,0.01,1.21,0.55,1.2,1.35c-0.01,1.1,0.05,2.23-0.13,3.31c-0.36,2.23-2.36,3.91-4.62,3.93c-4.22,0.03-8.44,0.03-12.66,0
		c-2.5-0.02-4.64-2.01-4.73-4.51c-0.11-2.91-0.04-5.82-0.05-8.73C0.26,17.64,0.26,16.8,0.26,15.96z"/>
	<path d="M28.11,17.29c-0.24,0-0.47,0-0.71,0c-4.45,0-8.89,0-13.34,0c-1.18,0-1.75-0.41-1.74-1.25c0.01-0.81,0.57-1.21,1.71-1.22
		c4.45,0,8.89,0,13.34,0c0.24,0,0.48,0,0.92,0c-0.67-0.67-1.22-1.2-1.74-1.76c-0.21-0.22-0.42-0.47-0.51-0.75
		c-0.16-0.54,0.01-1.03,0.5-1.34c0.48-0.31,1.02-0.32,1.43,0.07c1.08,1.03,2.18,2.06,3.14,3.19c0.94,1.11,0.8,2.82-0.2,3.89
		c-0.9,0.95-1.84,1.87-2.78,2.79c-0.56,0.55-1.32,0.54-1.81,0.03c-0.47-0.49-0.46-1.21,0.08-1.76c0.58-0.59,1.19-1.15,1.79-1.73
		C28.17,17.41,28.14,17.35,28.11,17.29z"/>
</g>
</svg>
