<?xml version="1.0" encoding="utf-8"?>
<!-- Generator: Adobe Illustrator 24.3.0, SVG Export Plug-In . SVG Version: 6.00 Build 0)  -->
<svg version="1.1" id="Layer_1" xmlns="http://www.w3.org/2000/svg" xmlns:xlink="http://www.w3.org/1999/xlink" x="0px" y="0px"
	 viewBox="0 0 32 32" style="enable-background:new 0 0 32 32;" xml:space="preserve">
<g>
	<path d="M4.52,28.95c-1.17,0-2.27-0.03-3.36,0.01c-0.66,0.03-0.94-0.17-0.89-0.87c0.05-0.76-0.08-1.55,0.03-2.3
		c0.25-1.71,0.45-3.44,0.93-5.09c0.68-2.29,2.32-3.58,4.75-3.85c1.39-0.16,2.8-0.34,4.14-0.72c3.05-0.86,4.83-3.09,4.95-6.27
		c0.08-2.14-0.12-4.29-0.21-6.44c-0.11-2.7-0.62-2.25,2.19-2.81c2.87-0.57,5.75-0.47,8.6,0.23c0.77,0.19,1.2,0.48,1,1.34
		c-0.05,0.22-0.01,0.45-0.01,0.68c1.32,0.23,2.63,0.42,3.92,0.69c1.21,0.25,1.22,0.29,1.12,1.51c-0.22,2.5-0.57,4.99-0.66,7.49
		c-0.07,2.19,0.17,4.39,0.23,6.58c0.06,2.2,0.01,4.4,0.1,6.59c0.06,1.62,0.29,3.23,0.38,4.85c0.06,1.13,0.01,1.13-1.13,1.13
		c-2.38,0-4.76,0-7.14,0c-1.08,0-1.08,0-1.09-1.11c0-0.23,0-0.45,0-0.85c-1.11,1.02-2.26,1.63-3.6,1.81
		c-0.66,0.09-1.32,0.14-1.99,0.14c-3.76,0.01-7.53-0.01-11.29,0.02c-0.81,0.01-1.04-0.28-0.98-1.03C4.56,30.17,4.52,29.6,4.52,28.95
		z M30.92,4.56c-0.09-0.06-0.13-0.1-0.18-0.11c-0.15-0.05-0.29-0.09-0.44-0.13c-3.04-0.75-6.08-0.67-9.13-0.07
		c-0.76,0.15-0.91,0.46-0.86,1.17c0.15,2.19,0.35,4.39,0.29,6.59c-0.09,3.63-2.15,6.28-5.62,7.28c-1.56,0.45-3.21,0.59-4.82,0.84
		c-1.13,0.17-2.12,0.61-2.87,1.48c-1.5,1.75-1.61,3.83-1.46,5.99c8.26,0,16.44,0,24.7,0c0-2.68,0.15-5.32-0.04-7.94
		c-0.22-3.09-0.5-6.16-0.08-9.26C30.67,8.46,30.75,6.49,30.92,4.56z M25.81,1.73C22.4,0.8,18.99,0.87,15.55,1.76
		c0.03,0.47,0.06,0.85,0.08,1.23c0.08,2.4,0.35,4.82,0.19,7.2c-0.22,3.27-1.94,5.65-5.18,6.61c-1.51,0.45-3.1,0.65-4.66,0.85
		c-1.68,0.22-2.92,1-3.71,2.51c-0.77,1.49-0.83,3.07-0.7,4.74c1.18,0,2.32,0,3.48,0c0.04-0.18,0.07-0.32,0.1-0.47
		c0.85-3.55,2.58-4.93,6.21-5.24c1.46-0.12,2.92-0.53,4.31-1c1.57-0.52,2.76-1.65,3.35-3.19c0.43-1.13,0.76-2.36,0.8-3.55
		c0.06-1.86-0.16-3.73-0.26-5.59c-0.11-2.1-0.11-2.13,1.96-2.47c1.4-0.23,2.83-0.37,4.29-0.55C25.81,2.5,25.81,2.16,25.81,1.73z
		 M5.37,30.87c0.15,0.02,0.25,0.05,0.35,0.05c4,0,7.99,0.04,11.99-0.05c0.96-0.02,1.96-0.38,2.85-0.78c0.65-0.3,1.14-0.93,1.7-1.41
		c-0.05-0.07-0.1-0.13-0.15-0.2c-5.57,0-11.13,0-16.73,0C5.37,29.3,5.37,30.08,5.37,30.87z M30.92,28.48c-2.61,0-5.13,0-7.69,0
		c0,0.82,0,1.59,0,2.39c2.59,0,5.13,0,7.69,0C30.92,30.06,30.92,29.3,30.92,28.48z M1.11,28.16c1.04,0,1.98,0.02,2.92-0.01
		c0.19-0.01,0.39-0.15,0.55-0.27c0.73-0.58,0.26-1.35,0.4-2.06c-1.35,0-2.61,0-3.88,0C1.11,26.61,1.11,27.34,1.11,28.16z"/>
	<path d="M6.25,12.84c-0.12-0.28-0.18-0.48-0.28-0.66C4.69,9.93,2.92,8.16,0.67,6.87c-0.5-0.29-0.52-0.61,0-0.9
		C2.91,4.67,4.68,2.9,5.98,0.65c0.31-0.53,0.64-0.44,0.91,0.04c1.28,2.23,3.04,3.97,5.26,5.26c0.55,0.32,0.55,0.61-0.01,0.94
		c-2.22,1.29-3.98,3.04-5.26,5.26C6.78,12.31,6.62,12.44,6.25,12.84z M11.37,6.41C9.3,5.12,7.7,3.49,6.41,1.48
		C5.12,3.53,3.5,5.12,1.48,6.42c2.05,1.28,3.65,2.9,4.94,4.93C7.71,9.32,9.29,7.71,11.37,6.41z"/>
	<path d="M2.69,12.95c0.02-0.38-0.02-0.67,0.06-0.93C2.8,11.84,3,11.7,3.13,11.55c0.13,0.16,0.33,0.3,0.38,0.48
		c0.07,0.26,0.02,0.55,0.02,0.92c0.37,0,0.68-0.05,0.96,0.02c0.17,0.04,0.3,0.27,0.44,0.41c-0.14,0.12-0.27,0.3-0.44,0.33
		c-0.27,0.06-0.55,0.02-0.9,0.02c-0.03,0.27-0.01,0.5-0.08,0.7c-0.09,0.26-0.25,0.49-0.38,0.74c-0.14-0.23-0.31-0.45-0.4-0.69
		c-0.07-0.18-0.03-0.4-0.05-0.7c-0.31-0.01-0.61,0.01-0.89-0.06c-0.18-0.05-0.33-0.23-0.5-0.36c0.16-0.14,0.29-0.35,0.47-0.4
		C2.03,12.9,2.33,12.95,2.69,12.95z"/>
	<path d="M23.22,25.97c-0.2-0.23-0.35-0.36-0.45-0.52c-0.98-1.67-2.3-2.98-3.96-3.97c-0.56-0.33-0.57-0.61-0.02-0.93
		c1.66-0.99,2.98-2.3,3.97-3.96c0.34-0.57,0.6-0.57,0.94-0.01c0.99,1.66,2.3,2.98,3.97,3.97c0.56,0.33,0.56,0.61,0.01,0.94
		c-1.67,0.98-2.99,2.3-3.97,3.96C23.6,25.61,23.42,25.75,23.22,25.97z M23.24,24.39c1.13-1.12,2.31-2.3,3.4-3.38
		c-1.1-1.1-2.29-2.28-3.4-3.39c-1.11,1.11-2.3,2.3-3.39,3.39C20.96,22.12,22.13,23.28,23.24,24.39z"/>
	<path d="M26.05,10.08c0.32,0,0.56-0.05,0.77,0.01c0.22,0.07,0.41,0.26,0.61,0.4c-0.21,0.13-0.41,0.3-0.64,0.38
		c-0.21,0.07-0.45,0.03-0.77,0.05c0,0.3,0.05,0.59-0.02,0.84c-0.05,0.2-0.26,0.35-0.4,0.53c-0.12-0.17-0.31-0.32-0.35-0.5
		c-0.06-0.26-0.02-0.55-0.02-0.91c-0.34,0-0.63,0.05-0.89-0.02c-0.2-0.06-0.35-0.27-0.52-0.41c0.16-0.12,0.31-0.31,0.5-0.35
		c0.26-0.06,0.55-0.02,0.87-0.02c0.02-0.29-0.02-0.53,0.05-0.74c0.09-0.25,0.26-0.46,0.4-0.69c0.12,0.22,0.29,0.42,0.36,0.65
		C26.07,9.52,26.03,9.76,26.05,10.08z"/>
</g>
</svg>
