<?xml version="1.0" encoding="utf-8"?>
<!-- Generator: Adobe Illustrator 24.3.0, SVG Export Plug-In . SVG Version: 6.00 Build 0)  -->
<svg version="1.1" id="Layer_1" xmlns="http://www.w3.org/2000/svg" xmlns:xlink="http://www.w3.org/1999/xlink" x="0px" y="0px"
	 viewBox="0 0 32 32" style="enable-background:new 0 0 32 32;" xml:space="preserve">
<path d="M10.05,8.2c0.09-1.05,0.12-2.1,0.29-3.12c0.47-2.93,3-4.96,5.97-4.83c2.84,0.13,5.21,2.49,5.42,5.41
	c0.05,0.68,0.13,1.37,0.13,2.05c0,0.49,0.2,0.6,0.64,0.58c0.6-0.03,1.21-0.01,1.81-0.01c1.73,0.01,2.67,0.9,2.79,2.6
	c0.2,2.84,0.41,5.68,0.61,8.53c0.23,3.22,0.46,6.43,0.67,9.65c0.12,1.72-0.78,2.68-2.49,2.68c-6.6,0-13.2,0-19.8,0
	c-1.65,0-2.59-0.94-2.48-2.58c0.25-3.86,0.54-7.72,0.81-11.58c0.15-2.07,0.3-4.15,0.44-6.22c0.03-0.35,0.04-0.71,0.09-1.06
	C5.12,9.09,6,8.29,7.24,8.26c0.89-0.02,1.79-0.02,2.68-0.03C9.94,8.24,9.96,8.22,10.05,8.2z M9.95,9.76c-0.75,0-1.43,0-2.12,0
	c-1.25,0-1.36,0.12-1.45,1.38c-0.15,2.2-0.31,4.4-0.46,6.6c-0.27,3.8-0.54,7.59-0.8,11.39c-0.06,0.9,0.16,1.11,1.07,1.11
	c6.54,0,13.08,0,19.61,0c0.93,0,1.14-0.21,1.07-1.16c-0.3-4.38-0.61-8.76-0.92-13.14c-0.12-1.66-0.24-3.32-0.36-4.98
	c-0.04-0.56-0.19-1.11-0.81-1.16c-0.9-0.08-1.82-0.02-2.75-0.02c0.04,0.68,0.08,1.31,0.11,1.93c0.02,0.46-0.17,0.77-0.64,0.84
	c-0.47,0.07-0.8-0.25-0.86-0.84c-0.06-0.63-0.1-1.27-0.14-1.91c-3.05,0-6.02,0-9.03,0c-0.05,0.67-0.08,1.32-0.14,1.96
	c-0.05,0.5-0.3,0.84-0.84,0.79c-0.51-0.05-0.69-0.4-0.66-0.89C9.87,11.06,9.91,10.46,9.95,9.76z M20.38,8.23
	c-0.06-0.91-0.08-1.78-0.17-2.64C20,3.58,18.49,2.04,16.5,1.78c-1.88-0.25-3.86,0.85-4.44,2.7c-0.36,1.18-0.39,2.47-0.57,3.75
	C14.54,8.23,17.4,8.23,20.38,8.23z"/>
</svg>
