<?xml version="1.0" encoding="utf-8"?>
<!-- Generator: Adobe Illustrator 24.3.0, SVG Export Plug-In . SVG Version: 6.00 Build 0)  -->
<svg version="1.1" id="Layer_1" xmlns="http://www.w3.org/2000/svg" xmlns:xlink="http://www.w3.org/1999/xlink" x="0px" y="0px"
	 viewBox="0 0 32 32" style="enable-background:new 0 0 32 32;" xml:space="preserve">
<path d="M5.43,28.58c0.24-1.43,0.52-3.04,0.79-4.65C6.37,23,6.5,22.06,6.7,21.15c0.13-0.6-0.05-1.02-0.47-1.42
	c-1.74-1.68-3.47-3.36-5.2-5.06c-0.94-0.93-1.07-2.24-0.23-3.13c0.36-0.37,0.9-0.7,1.4-0.78c2.32-0.39,4.65-0.72,6.99-1.02
	c0.79-0.1,1.29-0.4,1.64-1.15c0.96-2.06,2-4.07,2.99-6.12c0.45-0.93,1.11-1.54,2.17-1.54c1.05,0,1.73,0.59,2.18,1.52
	c1,2.08,2.06,4.14,3.05,6.23c0.31,0.65,0.75,0.95,1.44,1.04c2.31,0.31,4.62,0.67,6.93,0.99c0.98,0.14,1.7,0.59,2.02,1.55
	c0.33,0.96,0.04,1.76-0.67,2.45c-1.72,1.67-3.43,3.35-5.16,5.01c-0.44,0.42-0.59,0.85-0.48,1.47c0.44,2.35,0.82,4.71,1.23,7.07
	c0.16,0.95-0.07,1.76-0.85,2.34c-0.81,0.6-1.66,0.6-2.54,0.14c-2.1-1.11-4.21-2.19-6.3-3.32c-0.58-0.31-1.07-0.33-1.67-0.01
	c-2.12,1.15-4.26,2.27-6.41,3.37C7.18,31.59,5.4,30.51,5.43,28.58z"/>
</svg>
