<?xml version="1.0" encoding="utf-8"?>
<!-- Generator: Adobe Illustrator 24.3.0, SVG Export Plug-In . SVG Version: 6.00 Build 0)  -->
<svg version="1.1" id="Layer_1" xmlns="http://www.w3.org/2000/svg" xmlns:xlink="http://www.w3.org/1999/xlink" x="0px" y="0px"
	 viewBox="0 0 32 32" style="enable-background:new 0 0 32 32;" xml:space="preserve">
<style type="text/css">
	.st0{fill:none;stroke:#000000;stroke-width:7;stroke-miterlimit:10;}
</style>
<path d="M359.32-192.71c-1.37,0.01-2.74,0.01-4.11,0.01c-2.12,0.01-3.18,1-3.18,3.02c0,6.04,0,12.09,0,18.13
	c0,2.01,1.07,3.02,3.18,3.02c7.18,0,14.36,0,21.55,0c2.32,0,3.34-0.96,3.34-3.14c0-5.95,0-11.91,0-17.86c0-0.25,0-0.5-0.02-0.75
	c-0.11-1.35-1.21-2.37-2.64-2.41c-1.27-0.03-2.55-0.01-3.82-0.01c-0.25,0-0.51,0-0.83,0c0.01-0.24,0.02-0.47,0.02-0.7
	c-0.01-1.67-0.46-3.16-1.61-4.42c-1.31-1.44-2.99-2.18-5-2.2c-1.65-0.01-3.11,0.5-4.36,1.53c-1.65,1.37-2.3,3.12-2.29,5.09
	c0,0.2,0,0.41,0.02,0.61C359.41-192.74,359.37-192.71,359.32-192.71z M372.77-187.6c0.02,3.28-2.47,5.81-5.98,6.11
	c-3.47,0.29-6.53-1.82-7.13-4.96c-0.13-0.66-0.08-1.36-0.07-2.04c0.01-0.45,0.31-0.73,0.78-0.73c0.51,0,0.79,0.28,0.81,0.77
	c0.01,0.32,0,0.64,0.01,0.95c0.03,2.58,2.18,4.51,5.01,4.5c2.81-0.01,4.92-1.92,4.94-4.47c0-0.34-0.1-0.73,0.04-1.01
	c0.14-0.3,0.48-0.63,0.8-0.7c0.45-0.1,0.74,0.26,0.79,0.7C372.8-188.19,372.77-187.9,372.77-187.6z M363.32-197.67
	c1.71-1.12,3.57-1.2,5.36-0.21c1.83,1.01,2.51,2.58,2.45,4.48c-0.01,0.21-0.02,0.43-0.04,0.65c-3.27,0-6.54,0-9.85,0
	c-0.02-0.22-0.04-0.44-0.04-0.65C361.15-195.13,361.72-196.61,363.32-197.67z"/>
<g>
	<path d="M395.87-82.55c-0.47,0-0.94,0.01-1.41,0c-1.11-0.02-1.88-0.72-2.03-1.83c-0.08-0.65-0.14-1.3-0.27-1.95
		c-0.04-0.2-0.25-0.41-0.43-0.54c-1.01-0.75-1.89-0.5-2.69,0.38c-0.19,0.21-0.44,0.36-0.68,0.53c-0.86,0.61-1.82,0.56-2.58-0.17
		c-0.71-0.68-1.41-1.37-2.09-2.09c-0.72-0.76-0.78-1.72-0.15-2.57c0.41-0.56,0.87-1.09,1.26-1.66c0.11-0.16,0.1-0.42,0.09-0.64
		c-0.01-0.13-0.15-0.25-0.17-0.39c-0.15-1.02-0.86-1.2-1.74-1.26c-2.17-0.13-3.01-0.65-2.87-3.13c0.03-0.59,0-1.19,0.01-1.78
		c0.01-1.18,0.72-1.94,1.91-2.08c0.63-0.07,1.26-0.13,1.88-0.26c0.19-0.04,0.39-0.22,0.51-0.39c0.69-1.02,0.58-1.93-0.37-2.75
		c-0.24-0.21-0.42-0.5-0.6-0.78c-0.51-0.78-0.46-1.71,0.17-2.38c0.71-0.76,1.45-1.5,2.21-2.22c0.73-0.68,1.69-0.71,2.53-0.1
		c0.56,0.41,1.09,0.87,1.66,1.26c0.16,0.11,0.43,0.12,0.64,0.08c1.16-0.24,1.78-0.91,1.66-2.16c-0.03-0.28,0.06-0.57,0.1-0.85
		c0.16-1.04,0.93-1.73,1.97-1.75c0.96-0.02,1.93-0.02,2.89,0c1.08,0.02,1.85,0.71,2,1.79c0.09,0.65,0.19,1.3,0.24,1.95
		c0.03,0.35,0.21,0.44,0.48,0.6c1.02,0.64,1.87,0.5,2.65-0.39c0.2-0.23,0.47-0.39,0.72-0.57c0.83-0.58,1.79-0.54,2.53,0.16
		c0.73,0.69,1.44,1.4,2.13,2.13c0.7,0.74,0.75,1.69,0.16,2.53c-0.41,0.57-0.87,1.09-1.26,1.66c-0.12,0.17-0.08,0.46-0.11,0.69
		c0,0.02,0.02,0.04,0.03,0.05c0.24,1.18,0.96,1.68,2.15,1.59c0.26-0.02,0.53,0.06,0.79,0.1c1.08,0.15,1.77,0.92,1.79,2
		c0.02,0.94,0.01,1.88,0,2.83c-0.01,1.12-0.7,1.89-1.81,2.04c-0.57,0.08-1.14,0.2-1.7,0.21c-0.56,0.01-0.69,0.33-0.94,0.74
		c-0.53,0.9-0.34,1.57,0.36,2.23c0.29,0.28,0.52,0.63,0.75,0.97c0.53,0.79,0.48,1.73-0.18,2.43c-0.7,0.75-1.43,1.47-2.17,2.17
		c-0.74,0.69-1.7,0.74-2.53,0.13c-0.56-0.41-1.09-0.87-1.66-1.26c-0.17-0.12-0.47-0.12-0.69-0.08c-1.21,0.22-1.72,0.96-1.63,2.18
		c0.02,0.26-0.06,0.53-0.1,0.79c-0.16,1.07-0.93,1.75-2.01,1.78C396.81-82.55,396.34-82.55,395.87-82.55z M407.35-107
		c-0.12-0.19-0.21-0.38-0.34-0.52c-0.61-0.63-1.25-1.24-1.86-1.87c-0.37-0.38-0.72-0.39-1.13-0.06c-0.67,0.54-1.36,1.05-2.03,1.59
		c-0.31,0.25-0.6,0.25-0.96,0.09c-0.67-0.31-1.35-0.59-2.04-0.84c-0.42-0.15-0.63-0.39-0.67-0.84c-0.09-0.85-0.22-1.7-0.33-2.56
		c-0.06-0.47-0.32-0.67-0.79-0.67c-0.9,0.01-1.8,0-2.7,0c-0.44,0-0.69,0.2-0.74,0.64c-0.11,0.85-0.25,1.7-0.33,2.56
		c-0.05,0.48-0.28,0.72-0.71,0.88c-0.67,0.24-1.33,0.51-1.98,0.82c-0.38,0.18-0.69,0.16-1.02-0.1c-0.67-0.54-1.36-1.05-2.03-1.59
		c-0.39-0.31-0.73-0.29-1.08,0.07c-0.6,0.62-1.2,1.23-1.83,1.82c-0.41,0.39-0.42,0.75-0.07,1.18c0.53,0.65,1.03,1.33,1.55,1.98
		c0.26,0.33,0.27,0.63,0.09,1.02c-0.31,0.66-0.58,1.35-0.84,2.04c-0.15,0.39-0.38,0.6-0.8,0.64c-0.85,0.09-1.7,0.23-2.56,0.33
		c-0.5,0.06-0.71,0.33-0.7,0.82c0.01,0.88,0.01,1.76,0,2.64c0,0.47,0.2,0.72,0.68,0.78c0.85,0.1,1.7,0.24,2.56,0.33
		c0.45,0.05,0.69,0.27,0.84,0.68c0.25,0.67,0.51,1.34,0.82,1.98c0.2,0.41,0.18,0.72-0.1,1.07c-0.54,0.67-1.06,1.36-1.59,2.03
		c-0.29,0.37-0.27,0.7,0.06,1.03c0.63,0.62,1.26,1.24,1.87,1.87c0.37,0.38,0.72,0.39,1.13,0.06c0.65-0.53,1.33-1.02,1.98-1.55
		c0.35-0.28,0.66-0.29,1.07-0.09c0.64,0.31,1.31,0.57,1.98,0.82c0.41,0.15,0.63,0.39,0.67,0.84c0.09,0.85,0.22,1.7,0.33,2.56
		c0.06,0.47,0.32,0.67,0.79,0.67c0.9-0.01,1.8,0,2.7,0c0.44,0,0.69-0.2,0.74-0.65c0.11-0.85,0.25-1.7,0.33-2.56
		c0.05-0.48,0.28-0.72,0.71-0.88c0.65-0.23,1.3-0.49,1.92-0.79c0.4-0.19,0.71-0.22,1.07,0.07c0.67,0.54,1.36,1.05,2.03,1.59
		c0.39,0.31,0.73,0.29,1.08-0.07c0.6-0.62,1.2-1.23,1.83-1.82c0.41-0.39,0.41-0.75,0.06-1.18c-0.53-0.65-1.03-1.33-1.55-1.98
		c-0.27-0.33-0.27-0.63-0.09-1.01c0.31-0.66,0.58-1.35,0.84-2.04c0.15-0.39,0.38-0.59,0.8-0.64c0.85-0.09,1.7-0.23,2.56-0.33
		c0.5-0.06,0.71-0.33,0.7-0.82c-0.01-0.88-0.01-1.76,0-2.64c0-0.47-0.21-0.72-0.68-0.78c-0.83-0.1-1.66-0.25-2.5-0.32
		c-0.51-0.04-0.76-0.28-0.92-0.75c-0.22-0.64-0.47-1.27-0.77-1.87c-0.21-0.42-0.23-0.75,0.08-1.12c0.52-0.63,1.02-1.29,1.51-1.94
		C407.13-106.57,407.22-106.78,407.35-107z"/>
	<path d="M402.41-98.3c0,3.64-2.91,6.56-6.55,6.55c-3.64,0-6.55-2.93-6.54-6.57c0.01-3.61,2.91-6.51,6.52-6.52
		C399.48-104.84,402.4-101.94,402.41-98.3z M395.83-103.54c-2.88,0.02-5.23,2.39-5.22,5.26c0.01,2.87,2.38,5.23,5.25,5.24
		c2.89,0,5.29-2.42,5.25-5.29C401.07-101.21,398.7-103.56,395.83-103.54z"/>
</g>
<path class="st0" d="M-501.04-92.11h-72.31l-81.59,81.59c-7.94,7.94-20.82,7.94-28.77,0l-23.2-23.2v69.86
	c0,11.23,9.11,20.34,20.34,20.34h185.53c11.23,0,20.34-9.11,20.34-20.34V-71.77C-480.7-83-489.81-92.11-501.04-92.11z"/>
<path class="st0" d="M-686.57-92.11h113.22l49.6-49.6c7.94-7.94,7.94-20.82,0-28.77l-76.31-76.31c-7.94-7.94-20.82-7.94-28.77,0
	l-131.19,131.19c-7.94,7.94-7.94,20.82,0,28.77l53.11,53.11v-38.05C-706.91-83-697.81-92.11-686.57-92.11z"/>
<line class="st0" x1="-241.34" y1="-252.46" x2="-15.13" y2="-252.46"/>
<path d="M-65.42-284.53c7.19,1.44,12.26,5.15,14.06,12.36c0.39,1.55,0.51,3.2,0.51,4.8c0.03,25.8,0.04,51.6,0.01,77.39
	c-0.01,10.65-6.61,17.23-17.29,17.24c-41.65,0.02-83.29,0.02-124.94,0c-10.96,0-17.35-6.42-17.4-17.46
	c-0.04-8.6,0.14-17.2-0.12-25.79c-0.06-1.97-1.06-4.35-2.43-5.77c-7.69-8-15.64-15.74-23.47-23.6c-8.03-8.07-8-17.12,0.08-25.21
	c29.17-29.19,58.35-58.36,87.54-87.53c8.28-8.28,17.19-8.26,25.46,0c17.46,17.45,34.8,35.02,52.42,52.3
	C-64.76-299.7-61.83-293.18-65.42-284.53z M-130.72-179.17c20.7,0,41.4,0.02,62.09-0.01c7.96-0.01,11.34-3.41,11.34-11.43
	c0.02-25.3,0.02-50.6,0-75.9c-0.01-8.12-3.51-11.59-11.63-11.59c-41.15-0.01-82.29-0.01-123.44,0c-8.23,0-11.79,3.59-11.79,11.88
	c-0.01,24.92-0.01,49.85,0,74.77c0,9.08,3.23,12.27,12.45,12.27C-171.37-179.17-151.04-179.17-130.72-179.17z M-162.79-284.4
	c1.28,0,2.59,0,3.9,0c27.15,0,54.31,0,81.46,0c4.78,0,7.43-2.13,7.01-6.85c-0.25-2.83-1.6-6.12-3.55-8.14
	c-11.59-12.01-23.49-23.7-35.3-35.49c-0.66-0.66-1.45-1.21-1.56-1.3C-128.23-318.84-145.38-301.74-162.79-284.4z M-233.98-252.46
	c34.46-34.42,68.95-68.87,103.38-103.27c-3.79-3.29-8.63-2.94-13.37,1.79c-29.44,29.41-58.85,58.83-88.27,88.25
	c-0.7,0.7-1.41,1.42-1.98,2.23C-236.87-259.72-236.45-255.07-233.98-252.46z M-116.64-340.62c-3.05-3.18-5.91-6.17-7.86-8.21
	c-21.44,21.43-43.12,43.09-64.47,64.43c1.77,0,4.43-0.33,6.97,0.06c6.57,1.03,11-1.74,15.51-6.38
	C-149.91-307.77-132.89-324.42-116.64-340.62z M-210.47-263.33c-5.74,5.72-11.55,11.52-17.23,17.19c2.38,2.47,5.13,5.32,8.31,8.62
	c2.37-2.56,4.68-4.98,6.9-7.48c0.79-0.89,1.89-1.97,1.93-2.99C-210.36-253.28-210.47-258.58-210.47-263.33z M-214.21-233.74
	c1.17,1.55,2.23,2.96,3.49,4.63c0-2.92,0-5.3,0-8.84C-212.45-235.87-213.53-234.57-214.21-233.74z"/>
<path class="st0" d="M-995.93-103.85c-57.61,0-114.61,0-171.59,0c0-6.13-0.77-12.18,0.17-17.95c1.74-10.73,10.37-17.81,21.28-17.85
	c42.71-0.13,85.43-0.14,128.14,0c12.76,0.04,21.89,9.7,21.99,22.53C-995.9-112.79-995.93-108.46-995.93-103.85z"/>
<path class="st0" d="M-995.93-85.35c0-1.1,0-2.21,0-3.62c-57.57,0-114.68,0-172.03,0c0,1.4,0,2.5,0,3.61
	c0,22.16-0.02,44.33,0.01,66.49c0.02,13.68,9.29,23.06,23,23.08c42,0.06,84,0.06,125.99,0c13.72-0.02,23-9.39,23.02-23.07
	C-995.91-41.03-995.93-63.19-995.93-85.35z"/>
<g>
	<path d="M15.99,28.6c-4.33,0-8.67,0-13,0c-1.79,0-2.73-0.95-2.73-2.75c0-4.7,0-9.4,0-14.1c0-1.78,0.96-2.72,2.76-2.74
		c0.4-0.01,0.82-0.05,1.21-0.16c6.58-1.76,13.15-3.53,19.72-5.3c1.68-0.45,2.61,0.08,3.07,1.76c0.28,1.01,0.55,2.02,0.79,3.04
		c0.11,0.49,0.32,0.77,0.87,0.67c0.18-0.03,0.36-0.01,0.55,0c1.52,0.03,2.53,1.03,2.53,2.55c0.01,4.84,0.01,9.67,0,14.51
		c0,1.51-1.02,2.52-2.55,2.52C24.79,28.6,20.39,28.6,15.99,28.6z M1.79,18.07c-0.01,0.24-0.03,0.42-0.03,0.59c0,2.42,0,4.84,0,7.25
		c0,0.91,0.27,1.19,1.18,1.19c8.71,0,17.43,0,26.14,0c0.9,0,1.17-0.28,1.17-1.19c0-2.42,0-4.84,0-7.25c0-0.19-0.03-0.39-0.05-0.59
		C20.71,18.07,11.29,18.07,1.79,18.07z M1.78,16.51c9.51,0,18.96,0,28.4,0c0-0.89,0-1.72,0-2.53c-9.5,0-18.93,0-28.4,0
		C1.78,14.83,1.78,15.64,1.78,16.51z M30.22,12.4c0.1-1.75-0.03-1.89-1.69-1.89c-8.42,0-16.83,0-25.25,0
		c-0.23,0-0.46-0.02-0.68,0.01c-0.49,0.06-0.8,0.33-0.83,0.84c-0.02,0.33,0,0.67,0,1.04C11.27,12.4,20.72,12.4,30.22,12.4z
		 M26.47,8.99c-0.31-1.14-0.59-2.19-0.88-3.24c-0.25-0.9-0.4-0.99-1.3-0.75c-3.56,0.96-7.11,1.91-10.67,2.87
		c-1.28,0.34-2.56,0.68-3.84,1.02c0.01,0.03,0.02,0.07,0.03,0.1C15.33,8.99,20.83,8.99,26.47,8.99z"/>
</g>
</svg>
