<?xml version="1.0" encoding="utf-8"?>
<!-- Generator: Adobe Illustrator 24.3.0, SVG Export Plug-In . SVG Version: 6.00 Build 0)  -->
<svg version="1.1" id="Layer_1" xmlns="http://www.w3.org/2000/svg" xmlns:xlink="http://www.w3.org/1999/xlink" x="0px" y="0px"
	 viewBox="0 0 32 32" style="enable-background:new 0 0 32 32;" xml:space="preserve">
<g>
	<path d="M29.5,9.06c0.59-0.47,0.84-1,0.58-1.72c-0.11-0.31-0.24-0.64-0.23-0.96c0.01-0.23,0.23-0.45,0.36-0.67
		c0.18,0.17,0.4,0.32,0.53,0.53c0.1,0.16,0.07,0.39,0.15,0.57c0.48,1.12,0.23,2.08-0.68,2.91c0.67,0.91-0.44,1.1-0.66,1.73
		c1.03,1.31,1,2.99,1.34,4.56c0.31,1.43,0.54,2.88,0.83,4.31c0.09,0.46-0.02,0.71-0.46,0.87c-1.06,0.39-1.55,1.21-1.6,2.31
		c-0.03,0.71-0.04,1.42-0.04,2.13c0,0.47-0.22,0.7-0.69,0.68c-0.13-0.01-0.27,0-0.4,0c-9.06,0-18.12,0-27.18,0
		c-1.05,0-1.08-0.03-1.08-1.09c0-0.38-0.06-0.77,0.03-1.13c0.06-0.24,0.33-0.58,0.52-0.59c0.47-0.02,0.52-0.29,0.62-0.62
		c1.17-3.73,3.16-6.93,6.18-9.45c2.7-2.24,5.79-3.5,9.34-3.5c3.33,0,6.66,0.02,9.99,0.02c0.19,0,0.41-0.1,0.58-0.22
		c0.21-0.15,0.4-0.35,0.57-0.56C28.53,8.65,28.97,8.4,29.5,9.06z M28.7,23.42c0.14-1.31,0.64-2.32,1.78-2.95
		c0.13-0.07,0.23-0.37,0.2-0.53c-0.39-2.16-0.79-4.32-1.23-6.47c-0.34-1.63-1.51-2.59-3.16-2.6c-3.22-0.01-6.44-0.01-9.66,0.01
		c-1.8,0.01-3.52,0.43-5.15,1.2c-4.44,2.13-7.2,5.72-8.88,10.24c-0.13,0.34-0.22,0.7-0.33,1.1C11.12,23.42,19.89,23.42,28.7,23.42z
		 M1.27,25.3c9.14,0,18.25,0,27.41,0c-0.02-0.33-0.03-0.6-0.04-0.88c-0.2-0.01-0.31-0.02-0.42-0.02c-8.79,0-17.59,0.01-26.38-0.01
		C1.04,24.38,1.19,24.81,1.27,25.3z M29.26,10.2c-0.13-0.13-0.27-0.26-0.33-0.32c-0.25,0.15-0.47,0.28-0.67,0.41
		C28.75,10.83,29.02,10.66,29.26,10.2z"/>
	<path d="M20.13,19.04c-2.49,0-4.97,0-7.46,0c-0.88,0-1.02-0.21-0.71-1.05c1.08-3.01,3.78-4.93,6.97-4.94c2.53-0.01,5.06,0,7.59,0
		c0.89,0,1.09,0.16,1.29,1.01c0.28,1.23,0.57,2.46,0.85,3.69c0.19,0.85-0.14,1.28-1,1.29C25.14,19.05,22.64,19.04,20.13,19.04z
		 M27.77,18.08c-0.33-1.39-0.64-2.72-0.95-4.05c-2.91,0-5.75-0.1-8.58,0.03c-2.31,0.11-3.95,1.43-5.04,3.44
		c-0.09,0.17-0.14,0.35-0.22,0.55c2.03,0,4,0,6.01,0c0-0.51,0.02-0.98-0.01-1.44c-0.03-0.54,0.2-0.77,0.74-0.76
		c0.93,0.02,1.87,0.02,2.8,0c0.54-0.01,0.76,0.24,0.75,0.77c-0.02,0.48,0,0.96,0,1.46C24.79,18.08,26.23,18.08,27.77,18.08z
		 M19.95,18.05c0.83,0,1.59,0,2.34,0c0-0.43,0-0.8,0-1.2c-0.8,0-1.55,0-2.34,0C19.95,17.27,19.95,17.64,19.95,18.05z"/>
	<path d="M16.2,21.99c-1.24,0-2.48,0.02-3.72-0.02c-0.23-0.01-0.45-0.28-0.68-0.43c0.22-0.16,0.43-0.47,0.65-0.47
		c2.53-0.03,5.05-0.03,7.58,0c0.22,0,0.44,0.31,0.65,0.48c-0.23,0.15-0.46,0.41-0.69,0.42C18.73,22.02,17.47,21.99,16.2,21.99z"/>
</g>
</svg>
