<?xml version="1.0" encoding="utf-8"?>
<!-- Generator: Adobe Illustrator 24.3.0, SVG Export Plug-In . SVG Version: 6.00 Build 0)  -->
<svg version="1.1" id="Layer_1" xmlns="http://www.w3.org/2000/svg" xmlns:xlink="http://www.w3.org/1999/xlink" x="0px" y="0px"
	 viewBox="0 0 32 32" style="enable-background:new 0 0 32 32;" xml:space="preserve">
<path d="M16.02,13.14c4.42,0,8.84,0,13.27,0c1.63,0,2.46,0.82,2.46,2.45c0,0.39,0.01,0.78,0,1.17c-0.04,1.12-0.84,1.97-1.95,2.08
	c-0.2,0.02-0.41,0.02-0.61,0.02c-8.78,0-17.56,0-26.35,0c-0.72,0-1.45-0.05-1.9-0.65c-0.32-0.42-0.5-0.96-0.63-1.48
	c-0.1-0.36-0.02-0.77-0.02-1.16c0-1.59,0.83-2.43,2.41-2.43C7.14,13.14,11.58,13.14,16.02,13.14z"/>
</svg>
