<?xml version="1.0" encoding="utf-8"?>
<!-- Generator: Adobe Illustrator 24.3.0, SVG Export Plug-In . SVG Version: 6.00 Build 0)  -->
<svg version="1.1" id="Layer_1" xmlns="http://www.w3.org/2000/svg" xmlns:xlink="http://www.w3.org/1999/xlink" x="0px" y="0px"
	 viewBox="0 0 32 32" style="enable-background:new 0 0 32 32;" xml:space="preserve">
<g>
	<path d="M23.84,24.78c-0.31,0.17-0.65,0.31-0.93,0.51c-3.4,2.42-7.13,4.01-11.31,4.45c-2.17,0.23-4.33,0.14-6.46-0.36
		c-0.23-0.06-0.54-0.32-0.59-0.54c-0.21-0.84-0.39-1.71-0.49-2.57c-0.14-1.23,0.31-1.83,1.52-2.04c2.58-0.45,4.71-1.74,6.48-3.59
		c1.33-1.39,2.5-2.95,3.74-4.43c0.25-0.3,0.48-0.62,0.74-0.92c0.74-0.86,0.83-0.86,1.62-0.04c1.02,1.05,2.26,1.38,3.67,1.07
		c1.26-0.28,2.38-0.85,3.32-1.74c0.25-0.24,0.5-0.48,0.78-0.68c0.66-0.48,1.26-0.29,1.63,0.44c0.18,0.35,0.5,0.62,0.73,0.95
		c0.53,0.77,1.18,1.49,1.55,2.33c0.69,1.58,1.2,3.23,1.83,4.84c0.24,0.6,0.07,0.9-0.49,1.09c-1.63,0.56-3.26,1.12-4.9,1.69
		c-0.24,0.08-0.48,0.16-0.72,0.25C24.42,25.87,24.42,25.87,23.84,24.78z M14.32,19.75c0.6,1.05,1.5,1.5,2.61,1.46
		c1.73-0.05,3.35,0.23,4.64,1.34c0.57-0.24,1.05-0.46,1.55-0.64c1.89-0.66,3.79-1.3,5.68-1.95c0.32-0.11,0.61-0.19,0.52-0.65
		c-0.24-1.22-0.66-2.34-1.59-3.23c-0.44-0.42-0.85-0.88-1.32-1.36c-1.11,1.17-2.54,2.1-4.27,2.51c-1.86,0.44-3.46-0.03-4.82-1.41
		C16.3,17.17,15.31,18.47,14.32,19.75z M13.64,20.48c-2.35,2.3-4.79,4.21-8.05,4.77C5.34,25.3,5.03,25.75,5,26.04
		c-0.05,0.42,0.19,0.71,0.73,0.79c5.47,0.79,10.4-0.58,14.96-3.57c0.03-0.02,0.03-0.08,0.05-0.15c-0.87-0.74-1.9-0.99-3.01-0.91
		C16.09,22.32,14.64,22.02,13.64,20.48z M5.2,27.72c0,0.56,0.21,0.79,0.73,0.88c3.44,0.59,6.79,0.3,10.1-0.79
		c2.74-0.9,5.13-2.46,7.53-4.07c-0.03-0.09-0.07-0.25-0.12-0.39c-0.05-0.14-0.12-0.28-0.26-0.58C17.79,26.71,11.93,28.84,5.2,27.72z
		 M29.96,20.58c-1.97,0.68-3.85,1.33-5.77,1.99c0.26,0.74,0.49,1.4,0.74,2.11c1.95-0.67,3.84-1.33,5.77-2
		C30.44,21.95,30.21,21.31,29.96,20.58z"/>
	<path d="M11.26,5.32c0.34-0.21,0.71-0.39,1.01-0.65c0.54-0.49,0.99-1.13,1.88-0.87c0.11,0.03,0.29-0.1,0.4-0.2
		c0.27-0.25,0.53-0.52,0.79-0.78c0.95-0.95,2.37-0.92,3.29,0.07c0.44,0.47,0.46,0.93,0.02,1.4c-0.39,0.42-0.82,0.81-1.22,1.22
		c-0.37,0.38-0.73,0.68-0.67,1.37c0.04,0.42-0.48,0.94-0.84,1.33c-0.32,0.35-0.55,0.65-0.53,1.18c0.03,1.08-0.38,2.03-1.15,2.8
		c-2.59,2.59-5.19,5.17-7.77,7.78c-0.39,0.39-0.79,0.4-1.17,0.13c-0.86-0.61-1.76-1.2-2.5-1.94c-0.87-0.88-1.6-1.89-2.35-2.88
		c-0.35-0.46-0.25-0.89,0.2-1.33c2.52-2.47,5-4.97,7.49-7.47C8.98,5.66,9.95,5.15,11.26,5.32z M12.74,12.35
		c-1.54-1.54-3.02-3.03-4.53-4.54c-1.5,1.5-3.24,3.23-4.97,4.99c-0.13,0.13-0.17,0.55-0.07,0.66c1.27,1.32,2.57,2.62,3.9,3.89
		c0.11,0.11,0.54,0.08,0.67-0.04C9.5,15.59,11.23,13.85,12.74,12.35z M13.74,11.35c0.18-0.32,0.35-0.56,0.47-0.83
		c0.44-1.04,0.34-1.54-0.45-2.33c-0.57-0.57-1.12-1.16-1.72-1.69c-0.22-0.19-0.57-0.38-0.83-0.34c-0.66,0.09-1.3,0.3-2.11,0.51
		C10.51,8.56,11.99,10.04,13.74,11.35z M6.61,18.34c-0.08,0.09-0.16,0.17-0.25,0.26c-1.48-1.48-2.96-2.97-4.44-4.45
		c0.07-0.09,0.13-0.18,0.2-0.27c-0.3,0.31-0.6,0.62-0.94,0.98c1.28,1.71,2.77,3.21,4.45,4.44C6,18.94,6.31,18.64,6.61,18.34z
		 M15.82,6.95c-0.76-0.79-1.44-1.51-2.1-2.2c-0.34,0.33-0.68,0.66-1,0.98c0.71,0.7,1.42,1.41,2.18,2.15
		C15.21,7.56,15.54,7.23,15.82,6.95z M15.99,5.5c0.69-0.68,1.31-1.29,1.94-1.9c-1.22-1.02-1.62-0.57-2.82,0.93
		C15.4,4.86,15.69,5.18,15.99,5.5z"/>
	<path d="M20.81,7.48c0.37,0.31,0.74,0.62,1.1,0.94c0.26,0.24,0.54,0.52,0.21,0.87c-0.35,0.37-0.62,0.08-0.87-0.17
		c-0.35-0.36-0.69-0.73-1.17-1c0.23,0.61,0.45,1.23,0.68,1.84c0.13,0.34,0.22,0.75-0.24,0.84c-0.18,0.04-0.56-0.27-0.65-0.5
		c-0.5-1.28-0.95-2.59-1.39-3.89c-0.07-0.21-0.07-0.56,0.06-0.68c0.14-0.13,0.48-0.13,0.69-0.06c1.33,0.45,2.65,0.91,3.96,1.42
		c0.2,0.08,0.3,0.42,0.44,0.64c-0.25,0.08-0.53,0.27-0.74,0.22c-0.66-0.17-1.29-0.43-1.94-0.65C20.9,7.36,20.85,7.42,20.81,7.48z"/>
</g>
</svg>
