<?xml version="1.0" encoding="utf-8"?>
<!-- Generator: Adobe Illustrator 24.3.0, SVG Export Plug-In . SVG Version: 6.00 Build 0)  -->
<svg version="1.1" id="Layer_1" xmlns="http://www.w3.org/2000/svg" xmlns:xlink="http://www.w3.org/1999/xlink" x="0px" y="0px"
	 viewBox="0 0 32 32" style="enable-background:new 0 0 32 32;" xml:space="preserve">
<g>
	<path d="M1.22,19.86c0,2.45,0,4.77,0,7.12c7.6,0,15.15,0,22.73,0c0-2.16,0-4.28,0-6.37c-1.78-0.16-3.54-0.31-5.39-0.48
		c-0.1,0.33-0.2,0.85-0.41,1.33c-0.09,0.21-0.4,0.48-0.58,0.46c-0.39-0.04-0.4-0.39-0.3-0.72c0.15-0.51,0.29-1.02,0.46-1.59
		c-0.34-0.18-0.67-0.36-1.06-0.56c-0.27,0.46-0.51,0.94-0.82,1.35c-0.14,0.18-0.5,0.36-0.67,0.3c-0.37-0.13-0.29-0.47-0.11-0.77
		c0.27-0.45,0.53-0.92,0.8-1.39c-0.37-0.31-0.71-0.59-1.1-0.91c-0.32,0.3-0.62,0.6-0.94,0.87c-0.29,0.25-0.58,0.75-1.01,0.3
		c-0.41-0.43,0.1-0.68,0.35-0.94c0.29-0.31,0.61-0.6,0.96-0.93c-0.58-0.65-1.12-1.3-1.71-1.88c-0.15-0.15-0.48-0.14-0.74-0.16
		c-0.38-0.02-0.77-0.01-1.18-0.01c-0.15,1.38-0.66,2.54-1.62,3.47c-1.23,1.19-2.73,1.6-4.4,1.48c-0.19-0.01-0.36-0.29-0.54-0.45
		c0.18-0.15,0.34-0.4,0.55-0.44c0.44-0.08,0.9,0,1.35-0.07c2.12-0.34,3.6-1.98,3.72-4.18c0.03-0.57,0.27-0.66,0.78-0.75
		c1.89-0.35,3.06,0.56,4.16,1.96c2,2.54,4.71,3.71,7.96,3.64c1.31-0.03,2.62-0.02,3.94,0c2.29,0.04,4.31,1.5,5.04,3.65
		c0.16,0.48,0.28,1,0.29,1.5c0.04,1.6,0.01,3.19,0.02,4.79c0,0.47-0.2,0.66-0.67,0.66c-1.46-0.01-2.91,0.01-4.37-0.02
		c-0.21-0.01-0.57-0.24-0.6-0.42c-0.07-0.39,0.27-0.47,0.62-0.47c1.33,0,2.66,0,4.03,0c0-0.45,0-0.85,0-1.28
		c-9.85,0-19.67,0-29.55,0c0,0.42,0,0.82,0,1.28c0.27,0,0.51,0,0.75,0c7.28,0,14.55,0,21.83,0c0.18,0,0.39-0.05,0.55,0.02
		c0.19,0.09,0.34,0.28,0.5,0.43c-0.16,0.15-0.3,0.34-0.48,0.45c-0.13,0.07-0.32,0.02-0.48,0.02c-7.54,0-15.09,0-22.63,0
		c-0.99,0-1-0.02-1-0.99c0-3.09,0-6.18,0-9.28c0-0.93,0.03-0.95,0.98-0.95c0.33,0,0.67-0.05,0.98,0.02c0.19,0.04,0.33,0.28,0.5,0.43
		c-0.16,0.16-0.29,0.4-0.48,0.45C1.93,19.91,1.59,19.86,1.22,19.86z M24.95,26.98c1.96,0,3.88,0,5.78,0
		c0.71-4.61-1.98-6.97-5.78-6.42C24.95,22.69,24.95,24.82,24.95,26.98z"/>
	<path d="M30.12,10.16c0.2-0.5,0.36-0.93,0.56-1.42c-0.29-0.12-0.54-0.24-0.8-0.34c-1.13-0.43-2.26-0.86-3.39-1.28
		C26.17,7,25.89,6.79,26.1,6.45c0.09-0.15,0.5-0.25,0.7-0.18c1.49,0.52,2.95,1.11,4.43,1.65c0.5,0.19,0.6,0.48,0.4,0.95
		c-0.23,0.52-0.41,1.07-0.62,1.6c-0.14,0.38-0.23,0.81-0.81,0.75c-0.08-0.01-0.23,0.25-0.29,0.4c-0.44,1.12-0.86,2.25-1.29,3.38
		c-0.26,0.68-0.39,0.74-1.04,0.49c-4.82-1.83-9.64-3.66-14.46-5.49c-0.67-0.26-0.72-0.37-0.46-1.05c0.47-1.26,0.95-2.52,1.44-3.82
		c-0.52-0.26-0.45-0.64-0.25-1.09c0.25-0.58,0.47-1.18,0.68-1.78c0.15-0.42,0.42-0.53,0.82-0.38c3.04,1.16,6.08,2.31,9.12,3.47
		c0.33,0.13,0.59,0.36,0.37,0.67c-0.11,0.16-0.55,0.22-0.77,0.14c-2.69-0.99-5.36-2.02-8.04-3.03c-0.23-0.09-0.46-0.16-0.72-0.25
		c-0.18,0.47-0.35,0.9-0.56,1.43C19.85,6.26,24.94,8.19,30.12,10.16z M14.31,9.47c0.17-0.46,0.28-0.88,0.5-1.24
		c0.11-0.18,0.43-0.24,0.65-0.36c0.06,0.23,0.22,0.47,0.17,0.68c-0.08,0.41-0.27,0.8-0.43,1.25c0.37,0.15,0.71,0.28,1.08,0.43
		c0.16-0.4,0.31-0.76,0.44-1.12c0.12-0.33,0.28-0.64,0.7-0.47c0.39,0.15,0.3,0.48,0.18,0.78c-0.14,0.36-0.27,0.72-0.42,1.13
		c0.37,0.15,0.7,0.28,1.08,0.44c0.18-0.46,0.29-0.9,0.51-1.28c0.1-0.17,0.4-0.23,0.61-0.34c0.08,0.22,0.25,0.46,0.21,0.66
		c-0.08,0.43-0.28,0.83-0.44,1.28c0.4,0.15,0.73,0.28,1.08,0.41c0.17-0.46,0.27-0.86,0.48-1.21c0.12-0.19,0.41-0.28,0.63-0.41
		c0.07,0.24,0.24,0.5,0.2,0.71c-0.07,0.41-0.27,0.8-0.42,1.23c0.39,0.15,0.72,0.28,1.08,0.42c0.18-0.47,0.29-0.89,0.51-1.26
		c0.1-0.18,0.39-0.25,0.6-0.37c0.08,0.24,0.25,0.49,0.22,0.71c-0.07,0.41-0.27,0.8-0.43,1.25c0.38,0.14,0.72,0.27,1.09,0.4
		c0.18-0.45,0.29-0.87,0.5-1.24c0.11-0.18,0.39-0.26,0.59-0.39c0.08,0.24,0.27,0.49,0.23,0.71c-0.07,0.41-0.27,0.8-0.44,1.26
		c0.38,0.14,0.71,0.26,1.09,0.4c0.16-0.42,0.3-0.8,0.46-1.17c0.12-0.3,0.31-0.62,0.67-0.4c0.16,0.1,0.23,0.48,0.19,0.71
		c-0.08,0.41-0.27,0.79-0.42,1.21c0.28,0.1,0.48,0.17,0.75,0.27c0.48-1.27,0.95-2.5,1.43-3.76c-4.78-1.81-9.47-3.6-14.23-5.4
		c-0.48,1.27-0.95,2.5-1.43,3.76C13.82,9.27,14.02,9.35,14.31,9.47z"/>
	<path d="M9.08,4.84c0.07,0.17,0.14,0.35,0.2,0.52C9.37,5.57,9.46,5.78,9.51,6C9.7,6.84,10.09,7.5,11,7.75
		c0.17,0.05,0.39,0.3,0.4,0.46c0,0.16-0.21,0.43-0.37,0.48c-0.98,0.26-1.32,0.99-1.55,1.86c-0.09,0.35-0.12,0.91-0.63,0.82
		c-0.24-0.04-0.49-0.49-0.59-0.8c-0.26-0.88-0.59-1.65-1.6-1.89C6.5,8.64,6.32,8.39,6.31,8.24c0-0.15,0.17-0.42,0.31-0.45
		c1.16-0.25,1.4-1.19,1.69-2.12C8.39,5.42,8.6,5.2,8.75,4.97C8.86,4.93,8.97,4.88,9.08,4.84z M9.67,8.22
		C9.38,7.86,9.1,7.5,8.85,7.19C8.57,7.55,8.28,7.91,8.04,8.22C8.32,8.59,8.6,8.95,8.85,9.27C9.13,8.91,9.4,8.57,9.67,8.22z"/>
	<path d="M2.29,14.88c-0.07-0.19-0.15-0.39-0.21-0.58c-0.09-0.25-0.2-0.5-0.26-0.75c-0.14-0.58-0.45-0.97-1.04-1.17
		c-0.21-0.07-0.49-0.34-0.49-0.52c0-0.18,0.27-0.45,0.48-0.52c0.58-0.21,0.91-0.58,1.04-1.17c0.03-0.16,0.07-0.33,0.16-0.46
		c0.16-0.22,0.37-0.42,0.56-0.62C2.71,9.3,2.9,9.51,3.07,9.73c0.06,0.08,0.08,0.19,0.1,0.29c0.13,0.68,0.47,1.14,1.16,1.35
		c0.18,0.05,0.37,0.28,0.41,0.46c0.03,0.13-0.16,0.42-0.3,0.45c-0.93,0.23-1.17,0.97-1.4,1.75c-0.07,0.24-0.27,0.45-0.41,0.67
		C2.52,14.76,2.41,14.82,2.29,14.88z M2.52,12.6c0.2-0.25,0.4-0.5,0.61-0.75c-0.2-0.24-0.4-0.49-0.61-0.73
		c-0.22,0.27-0.42,0.51-0.6,0.74C2.12,12.12,2.33,12.37,2.52,12.6z"/>
</g>
</svg>
