<?xml version="1.0" encoding="utf-8"?>
<!-- Generator: Adobe Illustrator 24.3.0, SVG Export Plug-In . SVG Version: 6.00 Build 0)  -->
<svg version="1.1" id="Layer_1" xmlns="http://www.w3.org/2000/svg" xmlns:xlink="http://www.w3.org/1999/xlink" x="0px" y="0px"
	 viewBox="0 0 32 32" style="enable-background:new 0 0 32 32;" xml:space="preserve">
<g>
	<path d="M16,30.75c-4.48,0-8.96,0-13.45,0c-1.4,0-2.36-0.85-2.28-2.02c0.04-0.51,0.17-1.01,0.25-1.51
		c0.02-0.14,0.08-0.33,0.02-0.43c-0.5-0.8-0.23-1.6-0.11-2.42c0.05-0.36-0.07-0.74-0.07-1.11c0-0.61-0.06-1.23,0.05-1.82
		c0.98-5.34,2-10.68,3-16.01C3.67,4.1,4.39,3.39,5.77,3.53C7.36,3.7,8.5,3.25,9.23,1.88C9.52,1.32,10,1.24,10.6,1.25
		c3.67,0.02,7.33,0.02,11,0c0.44,0,0.78,0.07,1,0.46c0.81,1.45,2,2.06,3.77,1.83c1.12-0.15,1.91,0.56,2.11,1.62
		c1.09,5.71,2.16,11.43,3.23,17.14c0.03,0.18,0.08,0.41,0,0.56c-0.42,0.83-0.15,1.65-0.01,2.48c0.04,0.23,0.09,0.5,0,0.69
		c-0.34,0.72-0.14,1.42,0,2.12c0.31,1.62-0.51,2.6-2.24,2.6C24.97,30.76,20.48,30.75,16,30.75z M15.44,8.96
		c-0.43,0.5-0.75,0.88-1.08,1.26c-0.54,0.62-0.75,0.62-1.3,0.02c-1.26-1.4-2.62-2.72-3.75-4.21C8.37,4.76,7.26,4.27,5.7,4.48
		C4.9,4.59,4.61,4.74,4.46,5.52c-1.05,5.52-2.09,11.04-3.14,16.56c-0.2,1.05,0.18,1.46,1.31,1.46c4.06,0,8.12,0,12.18,0
		c0.21,0,0.42-0.02,0.63-0.03C15.44,18.67,15.44,13.89,15.44,8.96z M16.54,23.49c0.1,0.02,0.17,0.05,0.23,0.05
		c4.28,0,8.56,0.01,12.85,0c0.82,0,1.2-0.52,1.05-1.33c-0.34-1.78-0.68-3.56-1.01-5.33c-0.72-3.81-1.43-7.62-2.15-11.42
		c-0.13-0.68-0.47-0.94-1.19-0.95c-0.57-0.01-1.15-0.05-1.72,0.02c-0.31,0.03-0.68,0.18-0.88,0.39c-1.62,1.75-3.2,3.52-4.8,5.29
		c-0.59,0.65-0.77,0.65-1.34,0c-0.32-0.36-0.63-0.73-1.05-1.21C16.54,13.93,16.54,18.69,16.54,23.49z M30.52,27.62
		c-9.69,0-19.34,0-28.98,0c-0.5,1.83-0.25,2.16,1.62,2.16c8.54,0,17.08,0,25.62,0c1.95,0,2.22-0.34,1.75-2.15
		C30.53,27.61,30.5,27.6,30.52,27.62z M1.48,24.52c-0.05,0.22-0.11,0.45-0.15,0.68c-0.19,1.04,0.16,1.45,1.24,1.45
		c8.96,0,17.92,0,26.88,0c1.04,0,1.39-0.43,1.2-1.41c-0.05-0.25-0.1-0.49-0.14-0.71C20.81,24.52,11.18,24.52,1.48,24.52z M8.82,3.98
		c1.65,1.83,3.25,3.6,4.89,5.42c0.54-0.63,1.04-1.22,1.49-1.75c-1.76-1.71-3.48-3.37-5.23-5.07C9.61,3.02,9.23,3.48,8.82,3.98z
		 M18.26,9.4c1.66-1.84,3.27-3.63,4.89-5.43C22.72,3.45,22.33,3,22.07,2.68c-1.77,1.69-3.49,3.35-5.25,5.03
		C17.24,8.2,17.71,8.76,18.26,9.4z M20.61,2.28c-3.14,0-6.17,0-9.23,0c0.6,0.84,1.25,1.33,2.37,1.25c1.54-0.11,3.09-0.11,4.63,0
		C19.47,3.6,19.99,3.01,20.61,2.28z M18.18,4.54c-1.47,0-2.95,0-4.41,0c0.75,0.73,1.49,1.45,2.2,2.14
		C16.67,5.99,17.42,5.28,18.18,4.54z"/>
	<path d="M24.21,18.04c-0.86,0-1.72-0.01-2.58,0c-0.51,0.01-0.79-0.18-0.81-0.69c-0.06-1.81-0.13-3.61-0.21-5.42
		c-0.02-0.46,0.22-0.65,0.68-0.65c1.56,0,3.13,0.01,4.69,0c0.44,0,0.64,0.22,0.7,0.61c0.29,1.78,0.58,3.57,0.85,5.35
		c0.1,0.63-0.07,0.79-0.76,0.8C25.93,18.04,25.07,18.04,24.21,18.04z M26.48,17.01c-0.24-1.49-0.46-2.92-0.71-4.34
		c-0.02-0.14-0.22-0.36-0.33-0.36c-1.25-0.03-2.49-0.02-3.64-0.02c0,1.63,0,3.17,0,4.72C23.42,17.01,24.91,17.01,26.48,17.01z"/>
	<path d="M17.9,15.91c0.17,0.25,0.44,0.48,0.49,0.75c0.07,0.39-0.23,0.7-0.62,0.61c-0.26-0.06-0.62-0.37-0.65-0.61
		c-0.03-0.23,0.31-0.5,0.48-0.75C17.7,15.92,17.8,15.91,17.9,15.91z"/>
	<path d="M17.64,20.97c-0.19-0.24-0.53-0.5-0.51-0.72c0.02-0.24,0.35-0.57,0.62-0.64c0.38-0.1,0.71,0.19,0.65,0.59
		c-0.04,0.27-0.29,0.51-0.45,0.77C17.84,20.97,17.74,20.97,17.64,20.97z"/>
	<path d="M16.99,12.93c0.27-0.16,0.56-0.48,0.79-0.44c0.24,0.04,0.56,0.39,0.61,0.65c0.08,0.38-0.26,0.66-0.66,0.58
		c-0.28-0.06-0.51-0.33-0.76-0.5C16.98,13.12,16.98,13.03,16.99,12.93z"/>
</g>
</svg>
